<svg xmlns="http://www.w3.org/2000/svg" width="531.414" height="531.414" viewBox="0 0 531.414 531.414">
  <g id="noun_analytics_397394" transform="translate(-17.714 -1)">
    <path id="Path_3" data-name="Path 3" d="M466.5,91.943,291.754,266.707,466.5,441.454a264.622,264.622,0,0,0,0-349.511ZM284.421,1V223.946L441.454,66.9C398.905,29.643,344.435,4.968,284.421,1ZM248.993,266.707V1C110.542,10.158,1,125.935,1,266.707,1,413.448,119.966,532.414,266.707,532.414A264.2,264.2,0,0,0,441.454,466.5l-187.27-187.27A17.667,17.667,0,0,1,248.993,266.707Z" transform="translate(16.714)" fill="#4178ff"/>
  </g>
</svg>
