<svg xmlns="http://www.w3.org/2000/svg" width="465.208" height="521.033" viewBox="0 0 465.208 521.033">
  <g id="noun_Book_3476264" transform="translate(-55.825 -4)">
    <g id="Group_2" data-name="Group 2" transform="translate(55.825 4)">
      <rect id="Rectangle_1" data-name="Rectangle 1" width="74" height="130" transform="translate(205.102 149.318)" fill="#4178ff"/>
      <path id="Path_4" data-name="Path 4" d="M144.954,12H51.912A27.912,27.912,0,0,0,24,39.912V449.3a9.3,9.3,0,0,0,9.3,9.3H163.562a9.3,9.3,0,0,0,9.3-9.3V39.912A27.912,27.912,0,0,0,144.954,12Zm9.3,334.95H42.608V328.341h111.65Zm0-55.825H42.608V272.516h111.65Zm0-74.433A18.608,18.608,0,0,1,135.65,235.3H61.217a18.608,18.608,0,0,1-18.608-18.608V86.433A18.608,18.608,0,0,1,61.217,67.825H135.65a18.608,18.608,0,0,1,18.608,18.608Z" transform="translate(143.475 62.433)" fill="#4178ff"/>
      <path id="Path_5" data-name="Path 5" d="M51.3,375.558h111.65a9.3,9.3,0,0,0,9.3-9.3V49.912A27.912,27.912,0,0,0,144.346,22H69.912A27.913,27.913,0,0,0,42,49.913V366.254A9.3,9.3,0,0,0,51.3,375.558Zm9.3-288.429A18.608,18.608,0,0,1,79.217,68.521h55.825A18.608,18.608,0,0,1,153.65,87.129v93.042a18.608,18.608,0,0,1-18.608,18.608H79.217a18.608,18.608,0,0,1-18.608-18.608Zm0,148.867H153.65V254.6H60.608Zm0,55.825H153.65v18.608H60.608Z" transform="translate(292.95 145.475)" fill="#4178ff"/>
      <rect id="Rectangle_2" data-name="Rectangle 2" width="56" height="93" transform="translate(372.102 232.318)" fill="#4178ff"/>
      <path id="Path_6" data-name="Path 6" d="M126.954,4H33.912A27.912,27.912,0,0,0,6,31.912V515.729a9.3,9.3,0,0,0,9.3,9.3H145.562a9.3,9.3,0,0,0,9.3-9.3V31.912A27.912,27.912,0,0,0,126.954,4Zm9.3,334.95H24.608V320.341h111.65Zm0-55.825H24.608V264.516h111.65Zm0-74.433A18.608,18.608,0,0,1,117.65,227.3H43.217a18.608,18.608,0,0,1-18.608-18.608V78.433A18.608,18.608,0,0,1,43.217,59.825H117.65a18.608,18.608,0,0,1,18.608,18.608Z" transform="translate(-6 -4)" fill="#4178ff"/>
      <rect id="Rectangle_3" data-name="Rectangle 3" width="75" height="130" transform="translate(37.102 74.318)" fill="#4178ff"/>
    </g>
  </g>
</svg>
