<svg xmlns="http://www.w3.org/2000/svg" width="431.135" height="521.033" viewBox="0 0 431.135 521.033">
  <g id="noun_Meeting_2016759" transform="translate(-51.372 -1)">
    <g id="Group_16" data-name="Group 16" transform="translate(51.372 1)">
      <g id="Group_7" data-name="Group 7" transform="translate(0 26.866)">
        <g id="Group_4" data-name="Group 4" transform="translate(17.911)">
          <g id="Group_3" data-name="Group 3">
            <path id="Path_7" data-name="Path 7" d="M8.7,47.448A43.434,43.434,0,0,1,51.848,4.3,43.434,43.434,0,0,1,95,47.448,43.434,43.434,0,0,1,51.848,90.6,42.91,42.91,0,0,1,8.7,47.448Z" transform="translate(-8.7 -4.3)" fill="#4178ff"/>
          </g>
        </g>
        <g id="Group_6" data-name="Group 6" transform="translate(0 100.95)">
          <g id="Group_5" data-name="Group 5">
            <path id="Path_8" data-name="Path 8" d="M191.3,158.356c-18.725-4.071-43.148-13.026-63.5-27.68V207.2c0,16.282-16.282,16.282-25.238,16.282h-2.442L95.238,382.237a27.451,27.451,0,0,1-27.68,27.68c-15.468,0-27.68-12.212-28.494-27.68L34.18,222.671h-11.4c-8.955,0-16.282-7.327-16.282-15.468V70.432A53.679,53.679,0,0,1,60.232,16.7c9.769.814,23.609-2.442,40.706,7.327,8.955,4.071,17.1,14.654,20.353,20.353C149.784,83.457,177.464,97.3,197,103,181.535,119.278,180.72,142.888,191.3,158.356Z" transform="translate(-6.5 -16.7)" fill="#4178ff"/>
          </g>
        </g>
      </g>
      <g id="Group_12" data-name="Group 12" transform="translate(194.777 26.866)">
        <g id="Group_9" data-name="Group 9" transform="translate(131.683)">
          <g id="Group_8" data-name="Group 8">
            <path id="Path_9" data-name="Path 9" d="M46.6,47.448a43.148,43.148,0,1,1,86.3,0A43.434,43.434,0,0,1,89.748,90.6,42.91,42.91,0,0,1,46.6,47.448Z" transform="translate(-46.6 -4.3)" fill="#4178ff"/>
          </g>
        </g>
        <g id="Group_11" data-name="Group 11" transform="translate(0 100.136)">
          <g id="Group_10" data-name="Group 10">
            <path id="Path_10" data-name="Path 10" d="M261.43,219.314a14.384,14.384,0,0,1-10.583,4.071h-11.4l-4.885,159.566c-.814,15.468-13.026,27.68-28.494,27.68s-27.68-12.212-28.494-27.68l-4.885-159.566h-2.442c-6.513,0-12.212,0-16.282-2.442-4.071-1.628-8.141-5.7-8.141-13.84V130.576c-23.609,16.282-59.43,30.936-83.854,30.936-43.962,0-38.263-52.917-5.7-54.546,37.449-1.628,74.084-33.379,95.251-61.873C166.993,16.6,191.416,19.042,211.769,16.6h0c30.122,0,54.546,24.423,54.546,53.732C263.058,189.192,272.013,208.731,261.43,219.314Z" transform="translate(-30.425 -16.6)" fill="#4178ff"/>
          </g>
        </g>
      </g>
      <g id="Group_15" data-name="Group 15" transform="translate(126.188)">
        <g id="Group_14" data-name="Group 14">
          <g id="Group_13" data-name="Group 13">
            <path id="Path_11" data-name="Path 11" d="M184.009,1H39.1C29.327,1,22,8.327,22,17.282v87.924c0,8.955,7.327,16.282,17.1,16.282H79.8c21.167,21.981,29.308,35.821,37.449,27.68l26.052-27.68h40.706a16.33,16.33,0,0,0,16.282-16.282V17.282A16.33,16.33,0,0,0,184.009,1ZM94.456,70.2H77.36a8.141,8.141,0,0,1,0-16.282h17.1a8.141,8.141,0,0,1,0,16.282Zm51.289,0h-17.1c-4.885,0-8.141-3.256-8.141-8.141s3.256-8.141,8.141-8.141h17.1a8.141,8.141,0,0,1,0,16.282Z" transform="translate(-22 -1)" fill="#4178ff"/>
          </g>
        </g>
      </g>
    </g>
  </g>
</svg>
