<svg xmlns="http://www.w3.org/2000/svg" viewBox="0 0 500 500"><g id="freepik--Plants--inject-109"><g id="freepik--plants--inject-109"><path d="M470,239.9c-3.09,3.94-7.66,9.25-11.75,15.94a59.73,59.73,0,0,0-9.11,26.35l-4.31-2.49-.95-.55-1.58-.91h0c-.37-5.39-.91-15.24.55-22.56,2.58-12.88,7.83-21.83,16-25.8S476.94,231,470,239.9Z" style="fill:#f0f0f0"></path><path d="M464.53,233.22c-9.08,6.2-16.91,17.35-19.14,38-.29,2.68-.49,5.51-.58,8.51l-.95-.55c.08-2.46.24-4.8.46-7h0c2.12-21.64,10.29-33.3,19.65-39.69a.49.49,0,0,1,.55.8Z" style="fill:#fff"></path><path d="M481.56,257.16c-.14,1.55-1.37,2.76-2.56,3.78s-2.46,2.12-2.77,3.65c-.61,3.08,3.08,5.87,2.33,8.92a4.84,4.84,0,0,1-2.53,2.91,31,31,0,0,1-3,1.33,14,14,0,0,1-1.51.39,7.11,7.11,0,0,0-4.11,1.91c-1.65,1.85,0,3.2-.59,7.07-.2,1.42-1.65,4.78-6.21,6.48l-18.33-15.36a8.7,8.7,0,0,1,1.7-5.72,4.23,4.23,0,0,1,.34-.4h0a6.6,6.6,0,0,1,1.06-.92c1.85-1.33,4.25-2,5.59-3.83,1.53-2.17.58-5.24,1.51-7.72s3.37-3.35,5.74-3.8l.14,0c2.48-.47,5,.5,7.33-.39s4.51-2.32,6.94-3a8.14,8.14,0,0,1,7.06,1.08A4.33,4.33,0,0,1,481.56,257.16Z" style="fill:#e0e0e0"></path><path d="M476.3,256c-3.16.75-12.3,4.82-18.38,13.13a19.39,19.39,0,0,1,15.44,1.11.35.35,0,0,1,.11.49.33.33,0,0,1-.28.16.35.35,0,0,1-.2,0,18.69,18.69,0,0,0-15.77-.72c-2.56,3.8-4.78,10.56-5.25,16.09l-.66-.38c.52-5.54,2.78-12.31,5.35-16.12a.4.4,0,0,1,.1-.15c6.2-9.05,16-13.45,19.38-14.24a.34.34,0,0,1,.42.26A.35.35,0,0,1,476.3,256Z" style="fill:#fff"></path></g><g id="freepik--plants--inject-109"><path d="M63.58,277.43l-3.13,1.8-.76.44-1,.6-2.74,1.58-.63.36c-.61-3.08-2.41-7-4.78-11l0,0a140,140,0,0,0-10.1-14.71c-2.68-3.46-5.18-6.42-7-8.37-6.12-6.67-5.18-15.16,1.23-15.37,9.67-.32,19.74,9.56,24.28,20.41C64,265.15,63.38,269.41,63.58,277.43Z" style="fill:#e0e0e0"></path><path d="M60.45,279.23l-.76.44c-2.7-20.66-15.27-37.15-25.33-42a.4.4,0,0,1-.19-.54.41.41,0,0,1,.55-.2C44.88,241.83,57.62,258.43,60.45,279.23Z" style="fill:#fff"></path><path d="M58.65,280.27l-2.74,1.58-.63.36-.1.06-2.74,1.58c-1.09-2.22-3-4.69-7.24-8.34-6.37-5.46-14.82-8.55-16.44-12.45-1.94-4.68,1.19-8.56,8.24-7.45a21.14,21.14,0,0,1,3.37.82C47.64,258.84,55.71,265.69,58.65,280.27Z" style="fill:#f0f0f0"></path><path d="M55.91,281.85l-.63.36-.1.06c-4.8-14.41-15.39-20.56-20.67-21.82a.41.41,0,0,1-.3-.5.4.4,0,0,1,.49-.3c4.13,1,10.6,4.39,15.77,11.49l0,0A39.18,39.18,0,0,1,55.91,281.85Z" style="fill:#fff"></path></g></g><g id="freepik--Trees--inject-109"><g id="freepik--Tree--inject-109"><g id="freepik--tree--inject-109"><path d="M55.76,150a7.91,7.91,0,0,1,4.32.78c2.6,1.26,4.75,3.25,7.06,5s4.93,3.29,7.82,3.38,6-1.7,6.52-4.54a4.14,4.14,0,0,1,.37-1.44,2.11,2.11,0,0,1,2.46-.64,14,14,0,0,1,2.37,1.37c2.92,1.73,6.58,1.34,9.93.85,2.79-.41,6.31-1.64,6.3-4.46,0-1.84-1.61-3.19-2.88-4.53s-2.29-3.48-1.13-4.9a3.25,3.25,0,0,1,1.61-1c3.49-1.14,7.76.37,10.7-1.81a6.15,6.15,0,0,0,1.55-7.38,9.37,9.37,0,0,0-6.28-4.79c-2.34-.59-5.32-.87-6.19-3.12-.77-2,.77-4.11,2.5-5.33s3.83-2.06,5-3.8a6,6,0,0,0,.17-6.25,7.63,7.63,0,0,0-5.25-3.6,11.64,11.64,0,0,1-3.19-.7c-1-.5-1.71-1.73-1.18-2.69.31-.57,1-.87,1.36-1.41.74-1,.1-2.57-.94-3.31a12.89,12.89,0,0,0-3.56-1.37c-2.53-.84-5-3.29-4.24-5.85s4.42-3.53,5.49-6.09c1-2.26-.56-4.9-2.58-6.28s-4.5-2-6.72-3-4.37-2.9-4.55-5.35,1.7-4.62,3.23-6.62,2.84-4.78,1.5-6.91S83.21,52,80.9,51.3a10.5,10.5,0,0,1-6.35-5.73c-.62-1.42-.91-3-1.65-4.33-2.28-4.22-8-6.07-12.48-5.55-2.33.27-3.11,1.17-4.24,2.88-.65,1-1.33,1.53-1.56,2.92-.33,2,.74,4.64-1.18,6.2-2.92,2.36-7.4-.82-7.24,4.47a22.62,22.62,0,0,0,1,6.59c.8,2.22,2.39,3.19,1.07,5.68-1.72,3.22-2.84,3.2-6.29,3.2-2.49,0-4.57-.14-6.4,1.75-3.21,3.32-1.3,6.33,1.55,8.89,3.25,2.91,1.53,4.19,1.1,8-.2,1.82.21,2.38-1.41,3.58-3.07,2.28-4.79,1.51-3.92,6,.79,4.07-.43,2.68-4,4.2-3.13,1.34-5.2,4.72-7.74,6.82-1.63,1.35-4.12,2.4-4.27,4.77-.29,4.55,5.36,3.55,8,4.64,4.4,1.77,3.09,7.53-.34,9.68-3.63,2.29-8.92,3.13-9.21,8.33-.23,4,2,4.88,5.14,6.22,2.47,1.06,2.16,1.37,2.15,4.32,0,6,2,7.64,7.87,6.67,1.61-.26,4.06-.94,5.66-.46,2.25.67,1.49,1.23,1.55,3.1.16,4.81,5.76,3.45,8.13,1.4C48.63,153.1,52.06,150.35,55.76,150Z" style="fill:#BA68C8"></path><path d="M55.76,150a7.91,7.91,0,0,1,4.32.78c2.6,1.26,4.75,3.25,7.06,5s4.93,3.29,7.82,3.38,6-1.7,6.52-4.54a4.14,4.14,0,0,1,.37-1.44,2.11,2.11,0,0,1,2.46-.64,14,14,0,0,1,2.37,1.37c2.92,1.73,6.58,1.34,9.93.85,2.79-.41,6.31-1.64,6.3-4.46,0-1.84-1.61-3.19-2.88-4.53s-2.29-3.48-1.13-4.9a3.25,3.25,0,0,1,1.61-1c3.49-1.14,7.76.37,10.7-1.81a6.15,6.15,0,0,0,1.55-7.38,9.37,9.37,0,0,0-6.28-4.79c-2.34-.59-5.32-.87-6.19-3.12-.77-2,.77-4.11,2.5-5.33s3.83-2.06,5-3.8a6,6,0,0,0,.17-6.25,7.63,7.63,0,0,0-5.25-3.6,11.64,11.64,0,0,1-3.19-.7c-1-.5-1.71-1.73-1.18-2.69.31-.57,1-.87,1.36-1.41.74-1,.1-2.57-.94-3.31a12.89,12.89,0,0,0-3.56-1.37c-2.53-.84-5-3.29-4.24-5.85s4.42-3.53,5.49-6.09c1-2.26-.56-4.9-2.58-6.28s-4.5-2-6.72-3-4.37-2.9-4.55-5.35,1.7-4.62,3.23-6.62,2.84-4.78,1.5-6.91S83.21,52,80.9,51.3a10.5,10.5,0,0,1-6.35-5.73c-.62-1.42-.91-3-1.65-4.33-2.28-4.22-8-6.07-12.48-5.55-2.33.27-3.11,1.17-4.24,2.88-.65,1-1.33,1.53-1.56,2.92-.33,2,.74,4.64-1.18,6.2-2.92,2.36-7.4-.82-7.24,4.47a22.62,22.62,0,0,0,1,6.59c.8,2.22,2.39,3.19,1.07,5.68-1.72,3.22-2.84,3.2-6.29,3.2-2.49,0-4.57-.14-6.4,1.75-3.21,3.32-1.3,6.33,1.55,8.89,3.25,2.91,1.53,4.19,1.1,8-.2,1.82.21,2.38-1.41,3.58-3.07,2.28-4.79,1.51-3.92,6,.79,4.07-.43,2.68-4,4.2-3.13,1.34-5.2,4.72-7.74,6.82-1.63,1.35-4.12,2.4-4.27,4.77-.29,4.55,5.36,3.55,8,4.64,4.4,1.77,3.09,7.53-.34,9.68-3.63,2.29-8.92,3.13-9.21,8.33-.23,4,2,4.88,5.14,6.22,2.47,1.06,2.16,1.37,2.15,4.32,0,6,2,7.64,7.87,6.67,1.61-.26,4.06-.94,5.66-.46,2.25.67,1.49,1.23,1.55,3.1.16,4.81,5.76,3.45,8.13,1.4C48.63,153.1,52.06,150.35,55.76,150Z" style="fill:#fff;opacity:0.1"></path><path d="M100.51,139.86c2.68-.88,5.81-.19,8.46-.81a31.94,31.94,0,0,0-4.74-.75,13.4,13.4,0,0,0-6.72,1.46,6.23,6.23,0,0,0-2.37,1.59,3,3,0,0,0,.09,3c.45,1,1.14,2.67.06,3.55s-3.27.64-4.6.17a41.21,41.21,0,0,1-4.81-2.25,22.94,22.94,0,0,0-4.76-2c-1.19-.29-3.28-.44-4,.85a5.19,5.19,0,0,0-.81,2.58,5.3,5.3,0,0,1,0,2.06,4,4,0,0,1-2.84,3c-1.84.41-3.69-.82-4.83-2.33s-1.84-3.31-3-4.8a10.16,10.16,0,0,0-13.52-2c-1.71,1.24-3.86,3.12-5.58,1.88s-.72-4.95-2.75-6c-1.35-.68-3.25.39-4.38-.61a3,3,0,0,1-.77-1.66c-.81-3.39-1.51-7.32.63-10.08,1.9-2.46,5.93-4,5.5-7-.37-2.63-3.72-3.42-6.36-3.73s-6-1.55-5.84-4.21,3.66-3.86,4.18-6.41c.22-1.09-.15-2.31.35-3.3.75-1.5,2.9-1.56,4.15-2.67,2.26-2,.51-5.74,1.15-8.68.45-2.08,2.13-3.72,2.69-5.78,1.12-4.11-2.62-8-6.53-9.69A24.45,24.45,0,0,1,34,73.23l-.14-.1c.1,1.86,1.48,3.58,3.21,5.14,3.25,2.91,1.53,4.19,1.1,8-.2,1.82.21,2.38-1.41,3.58-3.07,2.28-4.79,1.51-3.92,6,.79,4.07-.43,2.68-4,4.2-3.13,1.34-5.2,4.72-7.74,6.82-1.63,1.35-4.12,2.4-4.27,4.77-.29,4.55,5.36,3.55,8,4.64,4.4,1.77,3.09,7.53-.34,9.68-3.63,2.29-8.92,3.13-9.21,8.33-.23,4,2,4.88,5.14,6.22,2.47,1.06,2.16,1.37,2.15,4.32,0,6,2,7.64,7.87,6.67,1.61-.26,4.06-.94,5.66-.46,2.25.67,1.49,1.23,1.55,3.1.16,4.81,5.76,3.45,8.13,1.4,2.73-2.38,6.16-5.13,9.86-5.49a7.91,7.91,0,0,1,4.32.78c2.6,1.26,4.75,3.25,7.06,5s4.93,3.29,7.82,3.38,6-1.7,6.52-4.54a4.14,4.14,0,0,1,.37-1.44,2.11,2.11,0,0,1,2.46-.64,14,14,0,0,1,2.37,1.37c2.92,1.73,6.58,1.34,9.93.85,2.79-.41,6.31-1.64,6.3-4.46,0-1.84-1.61-3.19-2.88-4.53s-2.29-3.48-1.13-4.9A3.25,3.25,0,0,1,100.51,139.86Z" style="opacity:0.15"></path><path d="M44.19,94.54l18.07,35.84v-16.5L64.1,71l2.67,42.85V125L86.64,90.25,66.77,132.88V291.12a1.12,1.12,0,0,1-.66.92,3.52,3.52,0,0,1-3.19,0,1.12,1.12,0,0,1-.66-.92V139.52Z" style="fill:#37474f"></path></g></g><g id="freepik--tree--inject-109"><g id="freepik--tree--inject-109"><path d="M450.15,150a8,8,0,0,0-4.33.78c-2.59,1.26-4.75,3.25-7.05,5s-4.94,3.29-7.82,3.38-6-1.7-6.52-4.54a4.14,4.14,0,0,0-.37-1.44,2.11,2.11,0,0,0-2.46-.64,14.11,14.11,0,0,0-2.38,1.37c-2.92,1.73-6.57,1.34-9.92.85-2.8-.41-6.31-1.64-6.3-4.46,0-1.84,1.61-3.19,2.87-4.53s2.3-3.48,1.14-4.9a3.3,3.3,0,0,0-1.61-1c-3.49-1.14-7.76.37-10.71-1.81a6.16,6.16,0,0,1-1.54-7.38,9.34,9.34,0,0,1,6.28-4.79c2.34-.59,5.32-.87,6.19-3.12.76-2-1.31-2.49-3.05-3.7s-3.28-3.69-4.49-5.43a6,6,0,0,1-.16-6.25,7.6,7.6,0,0,1,5.25-3.6,11.73,11.73,0,0,0,3.19-.7c1-.5,1.71-1.73,1.18-2.69-.32-.57-1-.87-1.36-1.41-.74-1-.1-2.57.94-3.31a12.89,12.89,0,0,1,3.56-1.37c2.53-.84,5-3.29,4.23-5.85s-4.41-3.53-5.49-6.09c-.95-2.26.56-4.9,2.59-6.28s4.5-2,6.72-3,4.37-2.9,4.55-5.35-1.7-4.62-3.24-6.62-2.83-4.78-1.49-6.91S422.69,52,425,51.3a10.49,10.49,0,0,0,6.36-5.73c.61-1.42.91-3,1.64-4.33,2.29-4.22,8-6.07,12.49-5.55,2.33.27,3.11,1.17,4.24,2.88.65,1,1.33,1.53,1.55,2.92.34,2-.74,4.64,1.19,6.2,2.92,2.36,7.4-.82,7.24,4.47a22.62,22.62,0,0,1-1,6.59c-.8,2.22-2.4,3.19-1.07,5.68,1.72,3.22,2.84,3.2,6.28,3.2,2.5,0,4.58-.14,6.4,1.75,3.22,3.32,1.31,6.33-1.55,8.89-3.24,2.91-1.52,4.19-1.1,8,.2,1.82-.21,2.38,1.42,3.58,3.07,2.28,4.78,1.51,3.92,6-.79,4.07.43,2.68,4,4.2,3.13,1.34,5.2,4.72,7.74,6.82,1.62,1.35,4.11,2.4,4.27,4.77.29,4.55-5.36,3.55-8.05,4.64-4.39,1.77-3.08,7.53.35,9.68,3.63,2.29,8.92,3.13,9.21,8.33.22,4-2.05,4.88-5.14,6.22-2.47,1.06-2.16,1.37-2.16,4.32,0,6-2,7.64-7.87,6.67-1.6-.26-4-.94-5.66-.46-2.24.67-1.48,1.23-1.55,3.1-.16,4.81-5.75,3.45-8.12,1.4C457.28,153.1,453.85,150.35,450.15,150Z" style="fill:#BA68C8"></path><path d="M450.15,150a8,8,0,0,0-4.33.78c-2.59,1.26-4.75,3.25-7.05,5s-4.94,3.29-7.82,3.38-6-1.7-6.52-4.54a4.14,4.14,0,0,0-.37-1.44,2.11,2.11,0,0,0-2.46-.64,14.11,14.11,0,0,0-2.38,1.37c-2.92,1.73-6.57,1.34-9.92.85-2.8-.41-6.31-1.64-6.3-4.46,0-1.84,1.61-3.19,2.87-4.53s2.3-3.48,1.14-4.9a3.3,3.3,0,0,0-1.61-1c-3.49-1.14-7.76.37-10.71-1.81a6.16,6.16,0,0,1-1.54-7.38,9.34,9.34,0,0,1,6.28-4.79c2.34-.59,5.32-.87,6.19-3.12.76-2-1.31-2.49-3.05-3.7s-3.28-3.69-4.49-5.43a6,6,0,0,1-.16-6.25,7.6,7.6,0,0,1,5.25-3.6,11.73,11.73,0,0,0,3.19-.7c1-.5,1.71-1.73,1.18-2.69-.32-.57-1-.87-1.36-1.41-.74-1-.1-2.57.94-3.31a12.89,12.89,0,0,1,3.56-1.37c2.53-.84,5-3.29,4.23-5.85s-4.41-3.53-5.49-6.09c-.95-2.26.56-4.9,2.59-6.28s4.5-2,6.72-3,4.37-2.9,4.55-5.35-1.7-4.62-3.24-6.62-2.83-4.78-1.49-6.91S422.69,52,425,51.3a10.49,10.49,0,0,0,6.36-5.73c.61-1.42.91-3,1.64-4.33,2.29-4.22,8-6.07,12.49-5.55,2.33.27,3.11,1.17,4.24,2.88.65,1,1.33,1.53,1.55,2.92.34,2-.74,4.64,1.19,6.2,2.92,2.36,7.4-.82,7.24,4.47a22.62,22.62,0,0,1-1,6.59c-.8,2.22-2.4,3.19-1.07,5.68,1.72,3.22,2.84,3.2,6.28,3.2,2.5,0,4.58-.14,6.4,1.75,3.22,3.32,1.31,6.33-1.55,8.89-3.24,2.91-1.52,4.19-1.1,8,.2,1.82-.21,2.38,1.42,3.58,3.07,2.28,4.78,1.51,3.92,6-.79,4.07.43,2.68,4,4.2,3.13,1.34,5.2,4.72,7.74,6.82,1.62,1.35,4.11,2.4,4.27,4.77.29,4.55-5.36,3.55-8.05,4.64-4.39,1.77-3.08,7.53.35,9.68,3.63,2.29,8.92,3.13,9.21,8.33.22,4-2.05,4.88-5.14,6.22-2.47,1.06-2.16,1.37-2.16,4.32,0,6-2,7.64-7.87,6.67-1.6-.26-4-.94-5.66-.46-2.24.67-1.48,1.23-1.55,3.1-.16,4.81-5.75,3.45-8.12,1.4C457.28,153.1,453.85,150.35,450.15,150Z" style="fill:#fff;opacity:0.1"></path><path d="M405.4,139.86c-2.68-.88-5.82-.19-8.46-.81a31.53,31.53,0,0,1,4.74-.75,13.36,13.36,0,0,1,6.71,1.46,6.27,6.27,0,0,1,2.38,1.59,3,3,0,0,1-.09,3c-.45,1-1.14,2.67-.07,3.55s3.28.64,4.6.17A40.59,40.59,0,0,0,420,145.8a22.94,22.94,0,0,1,4.76-2c1.19-.29,3.28-.44,4,.85a5.4,5.4,0,0,1,.81,2.58,5.5,5.5,0,0,0,0,2.06,4,4,0,0,0,2.84,3c1.85.41,3.69-.82,4.84-2.33s1.84-3.31,3-4.8a10.17,10.17,0,0,1,13.52-2c1.72,1.24,3.87,3.12,5.58,1.88s.72-4.95,2.76-6c1.35-.68,3.25.39,4.38-.61a3,3,0,0,0,.77-1.66c.81-3.39,1.51-7.32-.63-10.08-1.91-2.46-5.94-4-5.5-7,.37-2.63,3.71-3.42,6.35-3.73s6-1.55,5.85-4.21-3.66-3.86-4.18-6.41c-.22-1.09.15-2.31-.35-3.3-.75-1.5-2.9-1.56-4.15-2.67-2.26-2-.51-5.74-1.15-8.68-.45-2.08-2.14-3.72-2.7-5.78-1.12-4.11,2.62-8,6.54-9.69a24.45,24.45,0,0,0,4.46-2.07l.14-.1c-.1,1.86-1.48,3.58-3.22,5.14-3.24,2.91-1.52,4.19-1.1,8,.2,1.82-.21,2.38,1.42,3.58,3.07,2.28,4.78,1.51,3.92,6-.79,4.07.43,2.68,4,4.2,3.13,1.34,5.2,4.72,7.74,6.82,1.62,1.35,4.11,2.4,4.27,4.77.29,4.55-5.36,3.55-8.05,4.64-4.39,1.77-3.08,7.53.35,9.68,3.62,2.29,8.92,3.13,9.21,8.33.22,4-2.05,4.88-5.14,6.22-2.47,1.06-2.16,1.37-2.16,4.32,0,6-2,7.64-7.87,6.67-1.6-.26-4-.94-5.66-.46-2.24.67-1.48,1.23-1.55,3.1-.16,4.81-5.75,3.45-8.12,1.4-2.73-2.38-6.16-5.13-9.86-5.49a8,8,0,0,0-4.33.78c-2.59,1.26-4.75,3.25-7.05,5s-4.94,3.29-7.82,3.38-6-1.7-6.52-4.54a4.14,4.14,0,0,0-.37-1.44,2.11,2.11,0,0,0-2.46-.64,14.11,14.11,0,0,0-2.38,1.37c-2.92,1.73-6.57,1.34-9.92.85-2.8-.41-6.31-1.64-6.3-4.46,0-1.84,1.61-3.19,2.87-4.53s2.3-3.48,1.14-4.9A3.3,3.3,0,0,0,405.4,139.86Z" style="opacity:0.15"></path><path d="M461.72,94.54l-18.08,35.84v-16.5l-1.83-58.15-2.68,58.15V125l-16-26.42,16,34.32V291.12a1.12,1.12,0,0,0,.66.92,3.52,3.52,0,0,0,3.19,0,1.12,1.12,0,0,0,.66-.92V139.52Z" style="fill:#37474f"></path></g></g></g><g id="freepik--Floor--inject-109"><g id="freepik--floor--inject-109"><ellipse id="freepik--floor--inject-109" cx="250" cy="353.2" rx="238.81" ry="129.95" style="fill:#BA68C8"></ellipse><ellipse id="freepik--floor--inject-109" cx="250" cy="353.2" rx="238.81" ry="129.95" style="fill:#fff;opacity:0.9"></ellipse><path d="M70.47,267.51l316.8,192a262.8,262.8,0,0,0,31.59-14.47c93.26-50.74,93.26-133,0-183.77s-244.46-50.75-337.72,0C77.43,263.33,73.89,265.4,70.47,267.51Z" style="fill:#BA68C8"></path><path d="M70.47,267.51l316.8,192a262.8,262.8,0,0,0,31.59-14.47c93.26-50.74,93.26-133,0-183.77s-244.46-50.75-337.72,0C77.43,263.33,73.89,265.4,70.47,267.51Z" style="fill:#fff;opacity:0.4"></path><polygon points="27.1 357.03 54.96 373.92 47 378.75 19.14 361.86 27.1 357.03" style="fill:#fff"></polygon><polygon points="78.84 388.4 106.7 405.29 98.74 410.11 70.88 393.22 78.84 388.4" style="fill:#fff"></polygon><polygon points="130.58 419.76 158.44 436.65 150.48 441.48 122.62 424.59 130.58 419.76" style="fill:#fff"></polygon><polygon points="182.32 451.13 210.19 468.01 202.22 472.84 174.36 455.95 182.32 451.13" style="fill:#fff"></polygon><g id="freepik--Grass--inject-109"><path d="M384.34,457.78l-1.66-1h0l-1.89-1.15c0-.26,0-.52,0-.79a0,0,0,0,1,0,0,32.52,32.52,0,0,0-.88-8.33s0,0,0,0c-.25-1.12-.57-2.25-.93-3.36-.09-.29-.18-.57-.28-.84-.19-.55-.39-1.1-.61-1.63a38.83,38.83,0,0,0-1.84-3.9c-.22-.4-.45-.79-.68-1.17a26.17,26.17,0,0,0-1.55-2.29c-.31-.43-.64-.83-1-1.23a20.09,20.09,0,0,0-2.12-2.11c5.52,2.55,9.74,9.07,11.88,15.44a32.22,32.22,0,0,1,1.37,5.66h0A26.14,26.14,0,0,1,384.34,457.78Z" style="fill:#BA68C8"></path><path d="M380.77,455.61l1.89,1.15c1.43-11.39-7.6-24.45-11.16-26.54-.2-.1-.38-.21-.58-.3A20.09,20.09,0,0,1,373,432c.34.4.67.8,1,1.23a26.17,26.17,0,0,1,1.55,2.29c.23.38.46.77.68,1.17a38.83,38.83,0,0,1,1.84,3.9c.22.53.42,1.08.61,1.63.1.27.19.55.28.84.36,1.11.68,2.24.93,3.36,0,0,0,0,0,0a32.52,32.52,0,0,1,.88,8.33s0,0,0,0c0,.26,0,.52,0,.78Z" style="opacity:0.15"></path><path d="M396.42,437c-8.77,8.42-9.22,20.59-9.24,22.48L384.67,458l-.33-.2-1.66-1a31,31,0,0,1,1.49-5.74h0C386.74,443.84,391.63,438.19,396.42,437Z" style="fill:#BA68C8"></path><path d="M396.42,437c-4.92,1.76-11.08,11.26-11.75,21l-.33-.2-1.66-1a31,31,0,0,1,1.49-5.74h0C386.74,443.84,391.63,438.19,396.42,437Z" style="opacity:0.15"></path></g></g></g><g id="freepik--Shadows--inject-109"><g id="freepik--shadows--inject-109" style="opacity:0.1"><ellipse id="freepik--Shadow--inject-109" cx="335.46" cy="356" rx="65.56" ry="37.85"></ellipse><ellipse id="freepik--shadow--inject-109" cx="163.75" cy="382.23" rx="63.45" ry="36.63"></ellipse><ellipse id="freepik--shadow--inject-109" cx="253.59" cy="384.97" rx="51.65" ry="29.82"></ellipse></g></g><g id="freepik--speech-bubble--inject-109"><g id="freepik--speech-bubble--inject-109"><g id="freepik--speech-bubble--inject-109"><path d="M248.71,141.31l-2.79-5.23,2.24-6.46v-4l-6.85,4v4l2.95,5.1a.49.49,0,0,0,.2.18h0Z" style="fill:#BA68C8"></path><path d="M248.71,141.31l-2.79-5.23,2.24-6.46v-4l-6.85,4v4l2.95,5.1a.49.49,0,0,0,.2.18h0Z" style="opacity:0.2"></path><path d="M265.06,94.24A4.56,4.56,0,0,0,263,90.68l-1.68-1a4.49,4.49,0,0,0-4.1,0l-25.64,14.83a4.53,4.53,0,0,0-2.05,3.55v28.21a4.56,4.56,0,0,0,2.05,3.56l1.67,1a4.51,4.51,0,0,0,4.11,0l8.24-4.76,2.94,5.09a.44.44,0,0,0,.8-.08l3.1-9L263,126a4.53,4.53,0,0,0,2.05-3.55Z" style="fill:#BA68C8"></path><path d="M229.54,136.31a4.56,4.56,0,0,0,2.05,3.56l1.67,1A4.6,4.6,0,0,0,237,141c-1,.36-1.7-.18-1.7-1.35V111.44a4.17,4.17,0,0,1,.6-2l-5.78-3.34a4.2,4.2,0,0,0-.6,2Z" style="opacity:0.2"></path><path d="M265,93.66c-.24-.87-1-1.15-2-.61l-25.64,14.84a4,4,0,0,0-1.45,1.53l-5.77-3.34a4.18,4.18,0,0,1,1.44-1.53l25.63-14.83a4.58,4.58,0,0,1,4.11,0l1.68,1A4.5,4.5,0,0,1,265,93.66Z" style="fill:#fff;opacity:0.30000000000000004"></path></g><path d="M241.55,118.44a13.11,13.11,0,0,1,1.07-5.08h0l0,0a8.9,8.9,0,0,1,3.24-4.14c2.21-1.3,4.05,1.35,4.35,4.47.26-3.45,2.07-8.25,4.28-9.55a2.43,2.43,0,0,1,3.26.33h0a5.82,5.82,0,0,1,1.11,3.79c0,5.28-3.15,10.07-5.81,15.1l-2.87,4.87-2.76-1.56C244.77,124.76,241.57,123.72,241.55,118.44Z" style="fill:#fafafa"></path></g></g><g id="freepik--Characters--inject-109"><g id="freepik--characters--inject-109"><g id="freepik--Character--inject-109"><g id="freepik--Bottom--inject-109"><path d="M300.87,332.87c2.66-11.44,2.31-32.16,3.67-42.51,1.59-12.12,10.72-24.08,10.72-24.08s-2.76-31-3.46-44.86c-1.46-28.95,3.78-43.44,7.22-48.29,1.62-2.29,1.67-2.91,2.52-6.07,1.11-4.13,2-8,2-8l44.95.69a58,58,0,0,1,5.6,25c4.6,16.9,3.54,70.47,2.7,89.85-.5,11.61-8.27,62.7-8.44,64.28-.08.68-2.13,3.61-6.74,2.81s-5.84-2.41-5.84-2.9c0-1.68-.21-3.54-.35-5.22-.89-10.93-5-34.33-6.26-45.48a28.81,28.81,0,0,1,3.8-17.57l-6.65-30a221.74,221.74,0,0,1-10.11,41.79C331,297,313,340.41,313,340.41c-1.64,4.57-11.35,2.21-12.57-5.62Z" style="fill:#f28f8f"></path><path d="M300.87,332.87c-2.43-.43-2.13,8-3.59,13.15-1.57,5.49-4.35,9.18-5.69,13.67-1.53,5.14-1.34,7.44.14,12.18,1.16,3.69,8.92,9.93,12.91,5.73s5.57-9.56,6-14.87a81.87,81.87,0,0,1,2.2-13.23c1-4.36,3.39-12,1.61-12.59l-1,2.5c-1.44,1.75-12.31-.61-13-4.62Z" style="fill:#37474f"></path><path d="M353.08,339.13c-.63,2.66.09,9.93.09,9.93s1.17,2.5,5.27,4.14l1.77-10.13Z" style="fill:#263238"></path><polygon points="358.44 353.2 367.45 350.18 369.57 342.15 359.52 347 358.44 353.2"></polygon><path d="M369.63,330.26l.35-2.38c1.23.59,1.12,10.39,7.64,17.34,4.81,5.12,10.29,8.14,12.45,10.81,2.89,3.58-3.95,9.56-12.91,7.7-4.44-.91-11.19-3.71-13-6.69s-3.1-7.85-4.6-10-5.68-3.89-6.66-6.32c-1.08-2.68-.2-6.3.55-8.79.68-2.29.27-4.74,1.32-4.79L355,329c.61,1.22,4.2,2.84,8.72,3.05C365.83,332.1,368.66,332.22,369.63,330.26Z" style="fill:#37474f"></path><path d="M373.09,176.23s-10,2.92-29.26,1.52-24.68-4-24.68-4-6.91,9-8.21,19c-1.07,8.26-.36,25.11,1.18,45.69,1.35,18.12,2.07,27.26,2.07,27.26s-4.36,7.51-7.55,14.17c-4.09,8.57-3.95,36.66-4.72,47,3.67,4.24,11.62,6,14.52,5.28,4.41-9.18,18.57-44.7,20.84-51.45s7.4-19.5,9.06-40.17l5.32,30.17a42.86,42.86,0,0,0-3,10.91c-1,6.54,3.81,33.21,5.57,41.53,2.88,2.24,9.87,4,16.42.09,1-7.71,5.8-36.83,6.48-45,0,0,2.23-19.09,1.69-48.45A311.19,311.19,0,0,0,373.09,176.23Z" style="fill:#455a64"></path><path d="M346.34,240.5l2.71-30.21s12.24-7,15.23-13.51c0,0-.51,10.14-9.61,15.63L350.34,243l1.32,27.71Z" style="fill:#37474f"></path></g><g id="freepik--Top--inject-109"><path d="M367,148.09c.42.68,4-3.82,4.27-4.19,1.18-1.79,2.07-3.43,1.78-5.67s-1.75-4.49-2.44-6.74a16.75,16.75,0,0,1-.72-7.91c.48-2.62,1.81-5.07,2-7.72a13.06,13.06,0,0,0-1.25-6.13c-1.78-4-8-6.75-10.4-14.88a34.12,34.12,0,0,1-.65-8.19c.08-3.66.24-7.41-.91-10.89a11.46,11.46,0,0,0-4.17-5.83,18.53,18.53,0,0,0-3-1.31c-1-.47-1-.93-1.43-1.95-1.61-3.9-5.09-5.87-9-6.9-4.68-1.23-12-.93-14.57-.43-4.33.85-7.58,1.75-12,1.95-1.14.05-3.85,0-4.77.68a3.8,3.8,0,0,0-1.3,4.35c.54,1.92,2.69,3.4,2.62,6-1.13,1.33-2.53,3.77-.55,5a4,4,0,0,0,1.93.55,14.11,14.11,0,0,0-2,2.37,5,5,0,0,0-.84,2.94,3.14,3.14,0,0,0,1.53,2.56,5,5,0,0,0,1.25.41l2.87.68c-.2.39-.36.67-.41.77-3,4.7-8.51,10.06-4.7,16,.86,1.33,2.13,2.58,2.09,4.16-.06,2.16-2.44,3.36-4.41,4.25-4,1.82-10.39,6.27-7.69,11.55a6.93,6.93,0,0,1,1,4.23,3.1,3.1,0,0,1-2.28,2.67,3.47,3.47,0,0,1-4.25-1.72c-1,3.38,1.88,7.16,6.76,7.26,3.17.07,6.29-1.68,6.3-2.32-2.84,3.34-.61,9.83,2.92,9.95-1.31,2-2.64,7.78,2.4,13a11.24,11.24,0,0,0,12.41,2.71c1.22,2.21,3,5.33,5.38,6,3.58,1.06,7.79,1.59,10.78-.65,2.11-1.58,3.2-4.27,5.36-5.79,2.07,1.52,4.22,3.07,6.72,3.61,4.95,1.07,10-2.22,12.58-6.59C367.67,153.55,368.45,150.45,367,148.09Z" style="fill:#263238"></path><path d="M434.34,98.61a4.94,4.94,0,0,0-2.94.23,32.15,32.15,0,0,0-4.21,2.36c-2.15,1.17-5.62,3.09-8.11,3-.51,0-1.55-.23-.86-.86a21.7,21.7,0,0,0,2.62-2.54,4.4,4.4,0,0,0,1-3.4,1.49,1.49,0,0,0-.51-.95c-.42-.31-.7-.11-1,.14a9.75,9.75,0,0,1-1.12.67c-.78.45-1.56.89-2.34,1.35-4.53,2.65-9.06,5.75-11.74,10.39-.39.68-2.73,6-4.24,9-1.23,2.73-9.66,19.83-9.66,19.83l-15.84-14.73c-3.72-3.71-5.63-5.36-9.57-7.26a40.17,40.17,0,0,0-7.39-2L365.08,141s15.9,11.73,18.4,13.54c3.72,2.69,10.82,7.65,15.43,3.1,5.65-5.59,7.64-15.06,9.72-21.94,2.33-7.75,3-11.47,4.38-13.81s3.53-2.51,5.08-3a23.77,23.77,0,0,0,6.09-2.66,21.79,21.79,0,0,0,4.69-3.46,6.84,6.84,0,0,0,1.81-2.17,19.09,19.09,0,0,1,.43-2.31,27.53,27.53,0,0,0,1.41-2.38,8.19,8.19,0,0,0,.14-2.16,3.67,3.67,0,0,1,1.56-2.56,3.29,3.29,0,0,0,1-1.19C435.53,99.18,435,98.79,434.34,98.61Z" style="fill:#f28f8f"></path><path d="M416.24,106.34a16,16,0,0,1-5.57,7,6.62,6.62,0,0,0,4.14-2.11A6.24,6.24,0,0,0,416.24,106.34Z" style="fill:#b16668"></path><path d="M374.12,180.6l.91,6.17s-8,5.73-28.25,5.83-33.34-9.14-33.34-9.14l2.7-5.75Z" style="fill:#BA68C8"></path><path d="M374.12,180.6l.91,6.17s-8,5.73-28.25,5.83-33.34-9.14-33.34-9.14l2.7-5.75Z" style="opacity:0.30000000000000004"></path><path d="M316.15,173.32c3.18-6.3,4.72-11.15,4.68-15.32,0-2.06-.43-5.82-2.44-11.88s-2.39-12.58-2.6-17.74c-.3-7.65,5.21-13.54,7.66-15,0,0,6-1,15.15-1.84s19.82,2.2,19.82,2.2c4.71,3.77,6.93,5.14,12.69,13.34,3.46,4.93,6.14,14-.89,20.35.13,1.57.4,4.82.11,15.44.33,2.05,4.06,12.36,4.55,15.39s-1.27,4.06-1.27,4.06-7.89,5.57-26.4,5.23c-20.86-.38-29.4-6.13-31.49-7.71C314,177.56,315.24,175.13,316.15,173.32Z" style="fill:#BA68C8"></path><path d="M353.45,148.4s-5.62,6.29-13.59,5a13.59,13.59,0,0,1-8-4.11.55.55,0,0,0-.87.65c1.39,2.42,4.09,5.1,9.32,5.72A12.56,12.56,0,0,0,353.45,148.4Z" style="opacity:0.30000000000000004"></path><path d="M318.91,72.44c-2.53,1.86-3.36,3.75-1.65,19,1.33,11.85,4.65,14.72,8.14,15.57a17.34,17.34,0,0,0,7.51,0l.44,3.4s-.24,10.07,17.43,11.62c5.09-4.6.8-9.88.8-9.88l-2-17.54a4.35,4.35,0,0,0,5.26-1c2.07-2.26,2.83-7.07.24-9.22s-6.21-.4-7.17,2.08-3,3-3.63-1.23-1.06-12-6.89-14.7C327.74,72,329.17,79.76,318.91,72.44Z" style="fill:#f28f8f"></path><path d="M318.77,83.07l3.36-1.64a1.8,1.8,0,0,0-2.45-.9A2,2,0,0,0,318.77,83.07Z" style="fill:#263238"></path><path d="M334.33,95l-4.72,2.57a2.58,2.58,0,0,0,3.57,1.14A2.83,2.83,0,0,0,334.33,95Z" style="fill:#b16668"></path><path d="M334.55,80.19l3.6,1a1.79,1.79,0,0,0-1.24-2.29A2,2,0,0,0,334.55,80.19Z" style="fill:#263238"></path><polygon points="328.66 83.19 329.64 94.04 324.05 93.49 328.66 83.19" style="fill:#b16668"></polygon><path d="M332.91,107.1c3.81-.9,10.78-2.68,13.83-8.86,0,0-.67,4.12-3.05,6.18-3.33,2.88-10.55,4.42-10.55,4.42Z" style="fill:#b16668"></path><path d="M337.07,84.69c.16,1.09-.88-.44-2-.25s-1.84,2-2,.93a2.06,2.06,0,0,1,1.7-2.31A1.94,1.94,0,0,1,337.07,84.69Z" style="fill:#263238"></path><path d="M324.43,86.54c-.16,1.08-.71-.66-1.82-.8s-2.33,1.4-2.17.31a2.06,2.06,0,0,1,2.29-1.71A1.93,1.93,0,0,1,324.43,86.54Z" style="fill:#263238"></path><path d="M332,99.06a2.41,2.41,0,0,1,2-2.74,2.94,2.94,0,0,1,.59,0,2.8,2.8,0,0,1-1.43,2.45A2.53,2.53,0,0,1,332,99.06Z" style="fill:#ffa8a7"></path><path d="M350.78,122.12a66.42,66.42,0,0,1-15.35-9c-1.85-1.55-2.08-2.59-2.08-2.59l-.16-1.24L328,112.75s4.36,10.63,10.72,13A9.86,9.86,0,0,0,350.78,122.12Z" style="fill:#fff"></path><path d="M350.78,122.12s2.8,2.16,5,2.06c3.58-.18,3.89-2.38,2.21-5.68s-3-5.67-3-5.67l-3.84-4.27.43,3.68C352.87,115.69,352.14,119,350.78,122.12Z" style="fill:#fff"></path></g></g><g id="freepik--Arms--inject-109"><g id="freepik--Arm--inject-109"><path d="M268.56,203.06c4.52,1.39,5,1.38,12.26,5.94,5,3.17,12.05,7.75,18.82,12.66L312.39,202l9,7.08a204.21,204.21,0,0,1-10.1,23.17c-1.76,3.31-6.1,10.37-11.8,7.95-5.55-2.36-24.68-13.25-24.68-13.25Z" style="fill:#ffa8a7"></path><path d="M315.54,204.51,312.39,202l-4.24,6.54a12.7,12.7,0,0,0,12.25,3.1c.61-1.6,1-2.56,1-2.56Z" style="fill:#b16668"></path><path d="M265.9,202.3c10.48,1.61,10.93,3,17.9,7.54,6.47,4.23,14.12,10.15,14.12,10.15a41.89,41.89,0,0,1-9.5,15l-19.86-10.28Z" style="fill:#455a64"></path></g><path d="M292.41,154c14.1-30.46,17.29-36.5,23-39a27.63,27.63,0,0,1,8-1.58c2,3.67,6.43,17.12-1.94,25.26,0,0-9.49,14.23-13.78,21.82.87,7.86,2.22,19.49,4.74,24.94a6.66,6.66,0,0,0,3,2.83c3,1.51,3.23,3,5.69,4.68,1.92,1.34,3.44,1.47,3.28,2a3.17,3.17,0,0,1-3.49,1.89,14.15,14.15,0,0,1-3.76-1.11,24.28,24.28,0,0,0,5,5.55c4.66,3.86,5.18,6.67-3.07,8.32-5.18,1-9.67-1.13-14.85-10.94a81,81,0,0,1-5.08-11.16c-2.38-7.2-6-16.3-7.8-24.55C290.36,157.94,291.58,155.78,292.41,154Z" style="fill:#f28f8f"></path><path d="M314.26,192.56a18.54,18.54,0,0,0-5.88,2.48,1,1,0,0,0-.47.56c-.11.5.44,1,1.29,1.22a.29.29,0,0,1,.19.15.35.35,0,0,1,0,.28,1.74,1.74,0,0,0,1.2,2.06,1.23,1.23,0,0,1,.43.21,1,1,0,0,1,.24.43,2.85,2.85,0,0,0,2.64,1.73,2.09,2.09,0,0,1,.56,0,2.38,2.38,0,0,1,.45.23,3.76,3.76,0,0,0,1.85.35,36.46,36.46,0,0,0,6.53-.15l1.62,1.77c.82-.71-.25-4.4-1.87-6.74a15.15,15.15,0,0,0-2.78-3.15,6.64,6.64,0,0,0-3.55-1.8,7,7,0,0,0-2.27.3Z" style="fill:#ffa8a7"></path></g><g id="freepik--Kid--inject-109"><g id="freepik--bottom--inject-109"><path d="M233,258.69c-.83,5.84,2.05,11.8,1.67,17.85-.78,12.54-1.31,21.93-2.8,37.31a116.41,116.41,0,0,0-4.77,20.58c-1.11,7.75-1.5,20.66-3.76,29.17L223,365c.73,5.89,8.38,8.43,9.72,5,0,0,13.28-33.36,17.53-44.23a237.85,237.85,0,0,0,9.32-30.39L263,318.54s-1.46,6-.13,16.67c1,8.35,5.44,23.21,5.12,32.59,0,1.25,1.47,4.07,4.91,4.77s6.47-2.88,6.54-3.38c.17-1.18,3-37.55,3.71-46.23,1.64-19.09-2.34-50.83-3.88-64.27Z" style="fill:#ffa8a7"></path><path d="M284.67,304.78c0-9.14-3.92-36.32-4.94-46.47H232.6l-1.19,55.06a101.16,101.16,0,0,0-3.4,12.44c-1.53,7.29-3,24.76-3,24.76s1.16,3,5.73,4.59a11.25,11.25,0,0,0,8.44-.45s5.69-14.56,7-17.6c1.83-4.18,4.28-10.29,6.86-17.55s6.28-20.48,6.28-20.48l3.15,19.46c-.95,5.11-.7,14.36.55,21.62s2.88,15.62,2.88,15.62,2.63,1.52,8.13,1.4,7.07-2.26,7.07-2.26,2.48-26.65,3-36.28S284.67,304.78,284.67,304.78Z" style="fill:#455a64"></path><path d="M259.34,299.08c1.76-7,.72-18.34.72-18.34s7.21.07,10.92-4.88a16,16,0,0,1-5.47,7.39l-4,17.13,1,18.16Z" style="fill:#37474f"></path><path d="M298.48,387a3.41,3.41,0,0,1-.79,3.4c-1.42,1.12-5.52,2.89-10.79,2s-6.71-2.05-8.76-3.92-3.91-3.82-6.29-4.45c-2.21-.59-5.56-1.63-6.25-2.35s-.45-3.78-.45-3.78Z" style="fill:#263238"></path><path d="M267.76,364.69a1,1,0,0,0-.93.7c-.2.83-.48,3.28-.89,4.65a34.65,34.65,0,0,0-.73,8.91c.22,1.58,4.79,2.75,7.07,3.74a22,22,0,0,1,6.32,4.4,16.32,16.32,0,0,0,9.65,4c4.09.15,8.75-1,9.89-2.82,1.41-2.29,1.7-4.54-4.24-7.62-1.13-.58-4.58-2.81-5.92-3.74a26.51,26.51,0,0,1-4.08-3.39,16.14,16.14,0,0,1-2.3-2.85,7.73,7.73,0,0,1-.67-1.87,20.61,20.61,0,0,1-.48-2,1.41,1.41,0,0,0-.49-1,1.25,1.25,0,0,0-.79-.1,21.2,21.2,0,0,0-4.11.73,2.48,2.48,0,0,0-1.41.81,2.11,2.11,0,0,0-.32,1.12,9.23,9.23,0,0,1-.08,1.18.75.75,0,0,1-.18.38c-.21.2-.54,0-.7-.15a14.62,14.62,0,0,1-1.55-2c-.28-.36-1.55-.65-1.9-.94a10.77,10.77,0,0,1-1-.72C267.56,365.65,267.76,365.18,267.76,364.69Z" style="fill:#37474f"></path><path d="M278.6,387.09a32.63,32.63,0,0,0-2.72-2.29h0s6.35,2.83,9.32,1c1.91-1.19,1.1-2.77,1.07-3.26s4.65-2.41,6.46-2.54h0c.49.3.91.54,1.17.67,5.94,3.08,5.65,5.33,4.24,7.62-1.14,1.85-4.54,3.18-9.83,3A16.82,16.82,0,0,1,278.6,387.09Z" style="fill:#455a64"></path><path d="M285.84,381.07c3.7,1.67,2.06,2.31,1,2.41s-6.25-3.19-10-6.42c-3.9-3.38-7.28-6.91-8.73-8.15-.54-.46-1.11-1-1.63-1.55.14-.83.25-1.58.34-2a1.36,1.36,0,0,1,1-.88l.11,1.37a3.1,3.1,0,0,0,1,.76,5,5,0,0,1,1.83,1.05,14.62,14.62,0,0,0,1.55,2C275.48,374.05,282.13,379.4,285.84,381.07Z" style="fill:#263238"></path><path d="M286.6,382.92a.43.43,0,0,1-.24-.1.38.38,0,0,1,0-.53,9,9,0,0,1,7-2.42.37.37,0,1,1-.11.74,8.35,8.35,0,0,0-6.36,2.18A.39.39,0,0,1,286.6,382.92Z" style="fill:#f0f0f0"></path><path d="M283.38,380.92a.54.54,0,0,1-.24-.09.39.39,0,0,1,0-.53,9,9,0,0,1,7-2.59.39.39,0,0,1,.33.42.37.37,0,0,1-.42.32,8.4,8.4,0,0,0-6.31,2.33A.37.37,0,0,1,283.38,380.92Z" style="fill:#f0f0f0"></path><path d="M280.43,378.67a.37.37,0,0,1-.24-.1.37.37,0,0,1,0-.52,9,9,0,0,1,7-2.43.38.38,0,0,1,.32.43.38.38,0,0,1-.43.31,8.32,8.32,0,0,0-6.36,2.19A.42.42,0,0,1,280.43,378.67Z" style="fill:#f0f0f0"></path><path d="M277.82,376.64a.43.43,0,0,1-.24-.08.38.38,0,0,1-.05-.53,9,9,0,0,1,6.92-2.72.37.37,0,0,1-.08.74,8.33,8.33,0,0,0-6.26,2.45A.37.37,0,0,1,277.82,376.64Z" style="fill:#f0f0f0"></path><path d="M275,374.26a.34.34,0,0,1-.23-.08.38.38,0,0,1-.06-.52c1.48-1.85,4.8-3.05,7.57-2.73a.37.37,0,0,1-.08.74c-2.5-.28-5.59.82-6.9,2.45A.37.37,0,0,1,275,374.26Z" style="fill:#f0f0f0"></path><path d="M231.62,387.63c-.69,3.6-1.59,5.95-3.24,7.93s-4.33,2.39-6.89,1.49-5.71-2.91-6.07-6.12a18.88,18.88,0,0,1,1.08-8.64Z" style="fill:#263238"></path><path d="M223.92,361.32c-.95.18-2.41,4.81-3.66,9.63-1.33,5.15-2.51,6.63-3.65,10.86-1.31,4.82-1.14,6.5.32,9.65s7.6,6.73,11.34,2.82c3-3.19,3.48-6.47,3.86-11.39a95.49,95.49,0,0,1,1.51-11.65c.67-3.64,2.46-6.8,1.57-7.31-.14.54-1.64,4.4-2.31,3.87-.32-.09-.31-.61-.12-1.56a1.54,1.54,0,0,0-.14-1.21,2.14,2.14,0,0,0-1.15-.63c-1-.3-2.47-.76-3.54-1-.63-.12-.27-.09-.9-.19a6,6,0,0,0-2.39-.17c-.36.13-.43.43-.56.77s-.27.8-.43,1.13c-.06.13-.3.39-.45.36s-.24-.68-.18-.95.08-.72.14-1.05S223.71,362.17,223.92,361.32Z" style="fill:#37474f"></path><path d="M217,380.15c-.19.7-1.27,5.05,0,6s2.64-2.53,2.64-2.53,3.59-.63,8.37,1.95c-.36.73.1,3.31,1.55,2.93s2.5-5.16,2.51-5.22c-.38,4.71-.86,7.86-3.82,11-3.74,3.91-9.88.33-11.34-2.82s-1.63-4.83-.32-9.65C216.74,381.32,216.89,380.58,217,380.15Z" style="fill:#455a64"></path><path d="M220,384c-.24,1.77-1.86,1-1.8-1.53.08-3.77,1.52-7.23,2-11.53,1.25-4.82,2.57-9.66,3.66-9.63-.14.85-.65,2.75-.65,2.75-.08.35-.34,1.16-.34,1.16-.8,3.62-2.36,7.78-2.68,11.56C220,380.11,220.26,382.25,220,384Z" style="fill:#263238"></path><path d="M227.45,385.5c.57-1.7,1.24-2.14,2-5.4s3-8.87,4.17-12.36c.51-1.34,1.55-3.77,1.56-3.81.64.38.42,2.25-.39,4.4s-1.34,3.46-1.95,5.55c-1.46,4.12-2.17,8.58-3.09,10.95S226.87,387.2,227.45,385.5Z" style="fill:#263238"></path><path d="M227.87,385.63a.47.47,0,0,1-.15-.06,13.52,13.52,0,0,0-8.25-1.67.4.4,0,0,1-.46-.32.39.39,0,0,1,.34-.43,14.11,14.11,0,0,1,8.83,1.8.36.36,0,0,1,.11.52A.43.43,0,0,1,227.87,385.63Z" style="fill:#f0f0f0"></path><path d="M229.4,382.23l-.12-.05a17.87,17.87,0,0,0-9.63-2,.41.41,0,0,1-.45-.34.4.4,0,0,1,.36-.42,18.59,18.59,0,0,1,10.15,2.15.37.37,0,0,1,.12.53A.43.43,0,0,1,229.4,382.23Z" style="fill:#f0f0f0"></path><path d="M219.46,377.2a.37.37,0,0,1,0-.74c5.06-1,11.19,1.75,11.38,1.88a.36.36,0,0,1,.1.52.43.43,0,0,1-.56.1s-6-2.73-10.75-1.76A.33.33,0,0,1,219.46,377.2Z" style="fill:#f0f0f0"></path><path d="M220.65,374.11a.39.39,0,0,1-.31-.28.38.38,0,0,1,.3-.45c5.58-1.24,10.73,2.06,10.91,2.19a.37.37,0,0,1,.07.53.42.42,0,0,1-.57.07s-5-3.21-10.22-2.06Z" style="fill:#f0f0f0"></path><path d="M221.47,370.28a.37.37,0,0,1,0-.74c5.23-1.23,10.77,2.18,11,2.31a.36.36,0,0,1,.08.53.42.42,0,0,1-.57.08s-5.42-3.33-10.28-2.18A.54.54,0,0,1,221.47,370.28Z" style="fill:#ebebeb"></path></g><path d="M236.77,204.25c-4,1.19-5.85,14.92-5.12,20.61s2,18.88,2,18.88l-1.77,19.41c6.38,7.57,33.27,10.64,48.35.58,0,0-.18-33.56-1-41-1.36-12.86-7.43-19.35-12.68-20.31s-10.21-2.32-15-1.63A117,117,0,0,0,236.77,204.25Z" style="fill:#BA68C8"></path><path d="M246.58,198.26c-3.18-2.66-7-4.54-10.07-8.09-1.16-1.35-2.39-4.68-2.92-6.77-1.32-5.21-.8-12.12,3.12-15.92,0,0-.32-6.35,6.92-10.54a24.39,24.39,0,0,1,20.22-1.35,17.6,17.6,0,0,1,8.12,6.2,17.22,17.22,0,0,1,2.74,11.14,11.47,11.47,0,0,1-3.95,6.72,26,26,0,0,1-6.83,4c-1.51.66-3,1.27-4.55,1.95a12.6,12.6,0,0,0-2.31,1.11,8.48,8.48,0,0,0-1.2,1.46l-6.9,8.27A5.72,5.72,0,0,1,246.58,198.26Z" style="fill:#263238"></path><path d="M244.72,184.12a1.12,1.12,0,0,1-.18.2c-1,.84-1.24-1.1-2.48-2.27a2.91,2.91,0,0,0-2.49-.67,3.71,3.71,0,0,0-3.23,2.53,5.47,5.47,0,0,0,4.06,6.7,4.43,4.43,0,0,0,4.63-1.49l.48,14a15.24,15.24,0,0,0,10.2,4.53c7.12.4,6.72-3.8,5.38-5.8l.25-3.89a14.92,14.92,0,0,0,7.08-1.46,11.24,11.24,0,0,0,6.11-9.37c.2-2.85-.94-5.23-1.25-8.06-.18-1.68-.36-4.35-.53-5.44a11.09,11.09,0,0,0-.8-2.79c-9.24,2-20.16-.16-23.42-2a11.08,11.08,0,0,1-.2,6.07,11.32,11.32,0,0,1-3.57,5.07,6.69,6.69,0,0,1,.3,3.17A2.13,2.13,0,0,1,244.72,184.12Z" style="fill:#ffa8a7"></path><path d="M241.26,181.66a.34.34,0,0,0,.34.3h0l10.14-1.17a5,5,0,0,0,9.9-.38h0a2.05,2.05,0,0,1,1.7-2,1.44,1.44,0,0,1,1.69.77,4.93,4.93,0,1,0-.22-1.43,1.94,1.94,0,0,0,0,.24,2.26,2.26,0,0,0-1.62-.24,2.91,2.91,0,0,0-1.79,1.16,5,5,0,0,0-9.69,1.16l-10.21,1.18A.34.34,0,0,0,241.26,181.66Zm24.27-3.87a4.29,4.29,0,1,1,4.29,4.29A4.29,4.29,0,0,1,265.53,177.79Zm-13.09,2.62a4.29,4.29,0,1,1,4.28,4.29A4.28,4.28,0,0,1,252.44,180.41Z" style="fill:#455a64"></path><path d="M247.3,191.42a10.8,10.8,0,0,0,4.48,4.59,26.11,26.11,0,0,0,9.56,2l-.13,2.08c-2.61-.11-7.54-.73-10.95-3.7C248.41,194.77,247.3,191.42,247.3,191.42Z" style="fill:#f28f8f"></path><path d="M255.62,173.75l-3.71,2.31a2.3,2.3,0,0,1,.73-3.09A2.13,2.13,0,0,1,255.62,173.75Z" style="fill:#263238"></path><path d="M259.12,188l5.9.52a3.1,3.1,0,0,1-3.31,2.75A2.88,2.88,0,0,1,259.12,188Z" style="fill:#b16668"></path><path d="M259.88,189.07a2.12,2.12,0,0,0-.61.22,2.82,2.82,0,0,0,2.44,1.94,3.41,3.41,0,0,0,.64,0,1.94,1.94,0,0,0,0-.48A2.08,2.08,0,0,0,259.88,189.07Z" style="fill:#f28f8f"></path><path d="M255.21,180.26a1.8,1.8,0,1,0,1.43-2.1A1.79,1.79,0,0,0,255.21,180.26Z" style="fill:#263238"></path><path d="M267.81,177.91a1.79,1.79,0,1,0,1.43-2.09A1.79,1.79,0,0,0,267.81,177.91Z" style="fill:#263238"></path><path d="M263.08,178.53l1.59,6.95,4.31-2.07-5.13-5A2.25,2.25,0,0,0,263.08,178.53Z" style="fill:#f28f8f"></path></g><g id="freepik--arms--inject-109"><path d="M214.12,207.35c-2.2-4.2-4.39-5.37-5.94-8.14-2-3.61-5.54-10.88-5.54-10.88l-15.43,4s5.37,8,7.51,11.8c1.08,1.9.19,5.14,1.68,7.75C197.38,213.56,212.7,210.4,214.12,207.35Z" style="fill:#f28f8f"></path><path d="M203.45,208c-.92-1-3.62-3.33-2.32-7.1C199,203.55,201.15,207,203.45,208Z" style="fill:#b16668"></path><path d="M206.43,195.91c-2.7-4.94-14.42-31-14.42-31s-1.2-7.41-3.15-17.91c-2.34-12.65-1.91-26-17.54-30.16-1.66,9.14-3.19,19.36-2,28.58s1.8,12.77,3.48,22.83c.76,4.56,1.76,5.27,4.3,9.12,1.55,2.33,13.23,19.86,15.58,23.41" style="fill:#f28f8f"></path><path d="M192.49,201.68s9.81-1.35,13.22-7.91L196,167.9s-1.76-12.2-3.54-24.58c-2.2-15.41-3.51-24-13.05-26.56,0,0-12.14,10.08-11.27,23.84a193.72,193.72,0,0,0,3.53,26.34c.73,4.07.86,6,4.22,10.64S192.49,201.68,192.49,201.68Z" style="fill:#263238"></path><path d="M220.44,243.43c.36,4.22,1,10.46-1.54,11.27-4,1.27-9.79-5.31-14.39-12-4.85-7.07-11-19.08-11.83-23.42s1.39-8,4.65-11.73a53.88,53.88,0,0,1,4.07-4c1.18-1.25,1.36-1.85,1.85-1.9.93-.08,1.67,1.62,1,3.47-.44,1.22-1.41,1.88-2.19,3.28,1.29.2,3.83-1.52,5.74-1.61a30.58,30.58,0,0,1,7.91.92c1.56.58.92,2.39.24,2.77,0,0,1.45,1.07.36,2.28a2.59,2.59,0,0,1-.9,3.34c-1.94,1.53-4.27,3.42-7.18,3.83s-2.42.45-1.41,2,8,9.58,9.8,11.5S220.07,239.21,220.44,243.43Z" style="fill:#ffa8a7"></path><path d="M213.49,217.52c-1.24.95-3.87-1.84-5.62-2.87a2.67,2.67,0,0,0-2.5-.3c-.41.2-.45.14-.89-.06a3.29,3.29,0,0,0-2-.2,3.42,3.42,0,0,0-2,1.22.77.77,0,0,1-.22.22.71.71,0,0,1-.26.07,8.11,8.11,0,0,0-1.8.54,1.79,1.79,0,0,0-1.15,1.09c-.14.63.35,1.21.81,1.67.64.63,1.29,1.23,2,1.82a9.12,9.12,0,0,0,1.87,1.34,8.34,8.34,0,0,0,1.63.59,12.76,12.76,0,0,0,3.63.54,9,9,0,0,0,3.28-.82,32.12,32.12,0,0,0,4-1.92c2.81-1.22,1.94-5.11,1.94-5.11A13.86,13.86,0,0,1,213.49,217.52Z" style="fill:#f28f8f"></path><path d="M213.08,213c-.38,1.27-2.86,1.38-4.2-.23-.86-1-1.24-3.17-2.7-3.67a11.77,11.77,0,0,1-1.48-.57,8.25,8.25,0,0,1-.89-.48,5,5,0,0,1-.76-.57,5,5,0,0,0,.13-.65,5.84,5.84,0,0,0,1.08-1.7,4.15,4.15,0,0,0,.21-1.95c1.21-.91,2.5-1.59,3.12-1a11.32,11.32,0,0,1,2.34,3.73c.14.31.28.64.41,1s.37.91.53,1.38C211.76,210.62,213.24,212.49,213.08,213Z" style="fill:#f28f8f"></path><path d="M218.9,254.7c2.15-.94,4.86-2.1,9.25-9.87,4-7.07,9.34-17.15,9.34-17.15,2.63-3.88,1.22-21.41-1.84-22.67-6.08,1.79-6.75,1-11.94,12.06-3.31,7.08-7.76,15.69-7.76,15.69Z" style="fill:#ffa8a7"></path><path d="M216,232.76c1.53,1.53,5.75,6.35,6.27,10.31,0-2.84-1.35-7.32-5.57-11.67Z" style="fill:#f28f8f"></path><g id="freepik--arm--inject-109"><path d="M236.77,204.25c-8.68,1.38-9.86,4.59-13.84,13.59C220,224.4,217.88,229,217.88,229c4.67,2,11,9.66,11.47,13.73L238,228C241.54,222,238.21,206.62,236.77,204.25Z" style="fill:#455a64"></path></g></g><g id="freepik--character--inject-109"><g id="freepik--bottom--inject-109"><path d="M184.29,349c-.32-7.74,2.24-54.25,2.24-54.25l-22.78,11.61c3,28.06,5.25,41.42,5.24,43.69h0a3.88,3.88,0,0,0-.15,1.1c-.09,5.13,5.93,8.07,10.6,11.62a90.17,90.17,0,0,0,12.67,8.33c3.41,1.74,10.41,2.08,11.33,0-5.68-4.36-12.27-9.13-16.75-14C184.54,354.69,184.51,354.38,184.29,349Z" style="fill:#ffa8a7"></path><path d="M213.17,376.88c.29,0,.67,3.13-1,4.4-1.89,1.47-7.41,3.83-14.59,2.74s-11-3.31-13.87-5.69-6.8-5.72-10.05-6.5c-3-.72-6.27-2.11-7.22-3s-.72-4.87-.72-4.87Z"></path><path d="M191.38,358.94c-.45-.45-.89-.92-1.32-1.39a14.77,14.77,0,0,1-2.6-4.26,17.46,17.46,0,0,1-.86-2c-.27-1-.44-1.94-.66-2.9a6.46,6.46,0,0,0-.41-1.36,1.22,1.22,0,0,0-.63-.67,1.62,1.62,0,0,0-.54,0,20.75,20.75,0,0,0-7.76,2c-.64.31-1.16.68-1.18,1.41a5.77,5.77,0,0,1-.28,2.47.93.93,0,0,1-.28.37.64.64,0,0,1-.63,0,1.37,1.37,0,0,1-.49-.44c-.74-1-.94-2.34-1.78-3.24a3.14,3.14,0,0,0-1.73-.91c-.32-.06-1.4-.06-1.48-.51l-.25-2.09s-.66-.29-1,1a19.28,19.28,0,0,0-.4,3.95c-.1,1.44-.26,2.57-.48,4-.26,1.71-.5,3.41-.73,5.12a17.91,17.91,0,0,0-.33,5,2.91,2.91,0,0,0,1.06,1.87,10.09,10.09,0,0,0,3,2c1.52.68,3.1,1.22,4.65,1.83a41,41,0,0,1,10.08,6.42c3.32,2.75,10.39,5.61,15.08,5.81,7.17.3,12.28-1.86,13.77-4.27.2-1.67.37-3.39-.35-4.61-2.35-4-7.88-5.46-12.26-7.79a48.18,48.18,0,0,1-5.5-3.55A29,29,0,0,1,191.38,358.94Z" style="fill:#37474f"></path><path d="M187.51,369.51a.66.66,0,0,0,.81-.13c3.05-3.14,8.88-5.12,10.9-4.47,0,0-.27-.94-2.27-1.46,0,0-5.22-.37-10.23,4.64a.67.67,0,0,0,.15,1.05Z" style="fill:#fafafa"></path><path d="M194.23,361.5c-2.17-.76-7.31,1.66-9.82,4.23a.63.63,0,0,1-.82.09l-.65-.47a.62.62,0,0,1-.07-1c1.42-1.37,5.5-4.88,9.56-4.43C192.43,360,194.05,360.71,194.23,361.5Z" style="fill:#fafafa"></path><path d="M190.06,357.55c-1.55-.31-5.61.66-8.95,3.41a.56.56,0,0,1-.85-.15l-.32-.58a.57.57,0,0,1,.13-.71c1.17-1,5.05-3.87,8.83-3.48A3.64,3.64,0,0,1,190.06,357.55Z" style="fill:#fafafa"></path><path d="M203.24,367c-8.88,2.13-12.18,7.93-13.68,12.66a29.06,29.06,0,0,0,9.84,2.71c7.17.3,12.28-1.86,13.77-4.27.2-1.67.37-3.39-.35-4.61C210.93,370.26,207,368.68,203.24,367Z" style="fill:#BA68C8"></path><path d="M203.24,367c-7.2.23-13.75,6.39-13.68,12.66a29.06,29.06,0,0,0,9.84,2.71c7.17.3,12.28-1.86,13.77-4.27.2-1.67.37-3.39-.35-4.61C210.93,370.26,207,368.68,203.24,367Z" style="fill:#fafafa"></path><path d="M146.92,317l-21.65-2.49c.63,11.31.29,26.42.12,39.14a23.88,23.88,0,0,0-.11,8.45c.5,2.43-2.87,20-1.66,25,1.83,7.61,13.69,4.91,14.1.29s1.56-13.92,2.81-26.14C141.61,350.86,146.83,317.74,146.92,317Z" style="fill:#ffa8a7"></path><path d="M140.63,390.25,133,374.45c-2-1.07-4.46-3.32-6.66-2a10.29,10.29,0,0,0-2.13,1.55c-1.62,1.7-1.71,4.09-2.13,6.25s-1.92,4.18-2.2,6.41c-.54,4.22-.64,6.88.59,10.72s5,5.91,8.8,6.91c3.16.84,7.12-.1,8.8-2.82C140.22,398.07,140.6,394.77,140.63,390.25Z"></path><path d="M140.53,390.11c-3-3.82-17-4.85-20.78-1.26,0-.51.07-1.07.12-1.64.47-5.37.9-6.29,2.13-11.26a49.79,49.79,0,0,0,1.55-7c.25-2.45.47-7.5.59-9.22a36.55,36.55,0,0,1,.35-5.09c.11-.5.24-1.09.9-1,0,0,0,.85-.07,1.36s0,1-.07,1.48c-.07,1.05,0,2,0,3a3.37,3.37,0,0,0,.17,1.19.4.4,0,0,0,.17.21c.31.13.26-.57.28-.71l.4-2.6a.66.66,0,0,1,.13-.37.71.71,0,0,1,.27-.18c2.16-.91,3.77-1.68,6-1.36a20.63,20.63,0,0,1,3.71.8c.88.28,2.44.73,3,1.57a2.09,2.09,0,0,1,.15,1.31c-.1,1.17-.23,2.48-.36,3.8-.15,1.59,1.73-3.77,2-6.78.85.18.76,1.1.18,4.68a102,102,0,0,0-1.38,13.58,96.16,96.16,0,0,0,.25,10.87C140.34,387.15,140.47,388.67,140.53,390.11Z" style="fill:#37474f"></path><path d="M124.45,384c4-.66,10.34.06,13.25,1.3a.36.36,0,0,0,.51-.35l0-1.24a.37.37,0,0,0-.2-.33,22.42,22.42,0,0,0-13.49-1.2.38.38,0,0,0-.3.32l-.17,1.08A.37.37,0,0,0,124.45,384Z" style="fill:#fafafa"></path><path d="M125.72,377.84a22,22,0,0,1,11.84,1.52.35.35,0,0,0,.5-.32l0-1.14a.37.37,0,0,0-.21-.3c-1.07-.47-4.85-2.69-12.08-1.44a.36.36,0,0,0-.29.29l-.16,1A.38.38,0,0,0,125.72,377.84Z" style="fill:#fafafa"></path><path d="M126.81,372.23a19.7,19.7,0,0,1,11.06,1.42.35.35,0,0,0,.48-.32l0-1.11a.3.3,0,0,0-.19-.29c-1-.46-4.52-2.59-11.29-1.33a.33.33,0,0,0-.28.28l-.15,1A.34.34,0,0,0,126.81,372.23Z" style="fill:#fafafa"></path><path d="M119.78,388.9c0,3.79.37,6.36,2.44,9.14,2.63,3.56,12.08,6.71,16,1.23,1.94-2.72,2.32-5.85,2.42-9C137.86,386.32,123.56,385.25,119.78,388.9Z" style="fill:#fafafa"></path><path d="M127.5,198.21c-2.39,24.46-1.26,53.81-1.8,69.55s-2.35,26.49-1.92,38.45c.79,21.69,1.5,44.35,1.5,44.35s9.07,4,16.82,1.27c0,0,7.31-45.78,9-58.44,2.46-18,6.34-47.65,6.34-47.65l4.4,33.85a101.58,101.58,0,0,0,.16,25.22c1.1,7.9,5.81,37.86,5.81,37.86s10.34,4.5,17.11-2.27c0,0,3.31-56.1,3.54-63.39.32-10.33.15-88.37.48-95.18Z" style="fill:#BA68C8"></path><g style="opacity:0.35000000000000003"><path d="M127.5,198.21c-2.39,24.46-1.26,53.81-1.8,69.55s-2.35,26.49-1.92,38.45c.79,21.69,1.5,44.35,1.5,44.35s9.07,4,16.82,1.27c0,0,7.31-45.78,9-58.44,2.46-18,6.34-47.65,6.34-47.65l4.4,33.85a101.58,101.58,0,0,0,.16,25.22c1.1,7.9,5.81,37.86,5.81,37.86s10.34,4.5,17.11-2.27c0,0,3.31-56.1,3.54-63.39.32-10.33.15-88.37.48-95.18Z"></path></g><path d="M157.48,245.74l2.24-18.13s12.11-3.76,17.07-12.05c-3.09,10.18-14.26,15-14.26,15l-3.41,17.68,2.76,31.39Z" style="opacity:0.30000000000000004"></path></g><g id="freepik--top--inject-109"><g id="freepik--Chest--inject-109"><path d="M128.13,118.11s-4.78,11.06-4.7,20.64c.07,9.11,3.71,22.22,4.18,36.38.34,10.14-1,30.09-1,30.09,10.3,8.95,52.15,12.79,62.94-.36,0,0,0-21.9-.18-39.09-.12-11.51-1-25.05-2-31.19-2.4-14.23-5.18-15.72-7.93-17.82-5.37-1.37-11.21-3-11.21-3s-6.16-1.91-17.67-.69c-2.34.25-6.33.27-8.61.93C135.66,115.77,128.13,118.11,128.13,118.11Z" style="fill:#37474f"></path></g><g id="freepik--Head--inject-109"><path d="M182.85,82.66c2.62-5.35.62-12.68-2.07-16.21-3.88-5.09-10.18-7.5-19.84-7.33-7.35.13-14.69,2.85-16.4,10.3-6,1.5-5.73,11.2-4.45,15.53,2.58,8.79,8.09,16.58,8,21Z" style="fill:#263238"></path><path d="M181.16,103c-1.19,4.17-3.13,7.15-7,7.58a32.62,32.62,0,0,1-6.1-.24l-.09,5.33c1.65,4.3,1.36,9.95-.68,19.26-5.2-7.78-14.9-13.18-19.38-19.07l.26-18s-2.49,2.58-6.27-.13a8.52,8.52,0,0,1-2.18-10.53c2.11-4,5.91-2.13,7-.84s2.38,3.43,3.43,3.4c1.61,0,2.07-1.36,2.51-2.34a22,22,0,0,0,1.61-7.85,10.63,10.63,0,0,0,3.13-2.2,9.73,9.73,0,0,0,2.9-5.93c8.47-2.24,18-.57,21.37,2.27,1.84,3.61,1.59,12.22,1.32,16.94A49.64,49.64,0,0,1,181.16,103Z" style="fill:#ffa8a7"></path><path d="M168,110.29c-4.27-.43-12.77-2.82-15-5.31s-2.93-7.41-2.93-7.41.06,6.18,1.71,9,5.76,4.73,8.44,5.52,7.68,1.67,7.68,1.67Z" style="fill:#f28f8f"></path><path d="M182.68,95c-.15,2.06-3.57,2.64-8,1.6a18.82,18.82,0,0,0-6.61-.25c-1.87.19-3.91,1-7.07,1a6.57,6.57,0,0,1-5.56-2.81c-1.8-2.53-1.87-8-1.53-11.3l-6.16,4.32a16.36,16.36,0,0,1,1.85,4.93c.63,3-.42,6.67,1.23,11.1,2.06,5.5,11.64,8.22,19.29,8.5,5.81.21,8.73-2,10.36-4.19C181.89,106,182.8,100.47,182.68,95Z" style="fill:#263238"></path><path d="M167.07,98.68l4.24.81a2.13,2.13,0,0,1-2.48,1.79A2.26,2.26,0,0,1,167.07,98.68Z" style="fill:#9a4a4d"></path><path d="M167.2,86.89a1.81,1.81,0,1,1-1.73-2A1.84,1.84,0,0,1,167.2,86.89Z" style="fill:#263238"></path><path d="M165.16,77.83l-4.37,1.57a2.43,2.43,0,0,1,1.45-3.05A2.26,2.26,0,0,1,165.16,77.83Z" style="fill:#263238"></path><path d="M181.73,80l-4.46-1.43A2.24,2.24,0,0,1,180.13,77,2.45,2.45,0,0,1,181.73,80Z" style="fill:#263238"></path><path d="M181,87.24a1.81,1.81,0,1,1-1.73-1.95A1.85,1.85,0,0,1,181,87.24Z" style="fill:#263238"></path><path d="M158.08,80.63l-13.57,4.3a6.88,6.88,0,0,1,2.41,1.59l11-3.25Z" style="fill:#455a64"></path><path d="M185.68,81.42l-.77-.12a23,23,0,0,0-7.86,0c-2.55.7-3.49,1.53-4.87,1.5s-2.36-.95-5-1.8c-2.08-.68-5.63-.71-8.35-.51l-.85.07A1.41,1.41,0,0,0,157,82a3.2,3.2,0,0,0,.69,1.67,1.67,1.67,0,0,1,.23.67,29.23,29.23,0,0,0,.72,4.57,5.46,5.46,0,0,0,1,1.66,4.1,4.1,0,0,0,.52.5l.3.23a4.57,4.57,0,0,0,.91.48l.15.06.25.08L162,92a6.43,6.43,0,0,0,.83.16l.35,0,.44,0a5.93,5.93,0,0,0,6-3.2c1-1.69.91-4.13,2.5-4.07h.15l.14,0c1.15.31.86,2.53,1.49,4.16a6.21,6.21,0,0,0,1,1.79c.08.1.17.19.25.28l.14.13a.86.86,0,0,0,.14.13l.13.11.14.11.11.08.08.05a4.93,4.93,0,0,0,1.33.6l.13,0a7.23,7.23,0,0,0,1.66.23,5.07,5.07,0,0,0,5.07-3,30.21,30.21,0,0,0,1.29-4.51,1.45,1.45,0,0,1,.33-.59,3.3,3.3,0,0,0,.84-1.65A1.34,1.34,0,0,0,185.68,81.42Zm-16.93,5.92a5.32,5.32,0,0,1-1.36,2.35h0A5,5,0,0,1,163.55,91a4,4,0,0,1-3.48-1.86,1.74,1.74,0,0,1-.11-.18l-.09-.17-.08-.16-.06-.15a.61.61,0,0,1,0-.12.42.42,0,0,1,0-.1l-.06-.17h0a4.91,4.91,0,0,1-.15-.51h0c0-.1-.05-.2-.07-.3s-.06-.35-.09-.49a.25.25,0,0,0,0-.09v-.09c-.19-1.21-.34-3.59.28-4.1s2.23-1,4.77-.69l.28,0c.38.06.77.14,1.15.24l.45.13a10.27,10.27,0,0,1,1.11.41l.34.16.37.19.07,0a.57.57,0,0,1,.13.08,2.27,2.27,0,0,1,.73.65C169.39,84.45,169.13,86,168.75,87.34Zm15-.06c-.26.94-.83,3-2.68,3.78a4.35,4.35,0,0,1-1.93.36,4,4,0,0,1-3.71-1.91v0l-.06-.12a.54.54,0,0,1-.07-.13l0-.06-.09-.2-.09-.22a.36.36,0,0,0,0-.11.14.14,0,0,0,0-.06.44.44,0,0,1,0-.1l0-.07a6,6,0,0,1-.18-.9c-.17-1.34-.21-2.91.32-3.63s2.48-1.47,4.31-1.65c.43,0,.82,0,1.19,0h.29l.4,0h.15l.19,0,.32,0,.58.13.14,0h0l.1,0,.14,0,.16.06.27.12.05,0a2.21,2.21,0,0,1,.6.43C184.52,83.74,184.05,86.09,183.72,87.28Z" style="fill:#455a64"></path><path d="M177.29,93.45l-6.47,1.32,0-9.11a1.23,1.23,0,0,1,1.18-.75h.16a.31.31,0,0,1,.13,0,.87.87,0,0,1,.52.36,24.37,24.37,0,0,1,2.06,3,15.8,15.8,0,0,1,1.07,2c.33.67.64,1.35.9,2S177.29,93.45,177.29,93.45Z" style="fill:#f28f8f"></path></g><path d="M167.27,134.88c-.83-1.21-4.2-5-8.18-4-3.58.86-5.83,4.59-5.83,4.59s-4.8-3.74-8.67-12.13A36.08,36.08,0,0,1,142,114c2.05-1.88,4-4.28,4.75-4.71a1.41,1.41,0,0,1,1.29-.16l0,2a20.87,20.87,0,0,0,5.6,9.65C158.22,125.49,166.18,128.07,167.27,134.88Z" style="fill:#263238"></path><path d="M167.27,134.88a36.58,36.58,0,0,0,.87-9c-.16-2.48-.23-8.87-.23-8.87l.08-3.9s1.27.15,2.54,2.3a35.35,35.35,0,0,1,3.55,7.22,33.85,33.85,0,0,1,2.25,9.07c-2.69-3.14-5.05-1.65-6.16-.18S167.27,134.88,167.27,134.88Z" style="fill:#263238"></path><path d="M169.82,101.22a2.26,2.26,0,0,0-2.75-1.83,2.23,2.23,0,0,0,1.76,1.89A2,2,0,0,0,169.82,101.22Z" style="fill:#f28f8f"></path><path d="M151,219.83c-.09-.42-.48-.51-.86-.6-.81-.19-1.6-.35-2.4-.56a27.5,27.5,0,0,1-3.62-1.43,41.79,41.79,0,0,0-5-1.52,19.85,19.85,0,0,1-2.35-.94,7.54,7.54,0,0,1-3.14-2.38,18.32,18.32,0,0,1-2-3.16,21.52,21.52,0,0,1-1.11-2.61q-6.84-.31-11.66,8.48c.52.89,1,1.69,1.42,2.37,3.5,5.63,3.13,11.17,8.68,17A17.09,17.09,0,0,0,140.05,228a16.12,16.12,0,0,0,2-3.68c-.38-.5-1.24-1.74.13-1.82a11.35,11.35,0,0,1,1.19,0c.91.08,1.82.15,2.72.16a6,6,0,0,0,3.42-.61C150.26,221.6,151.24,220.9,151,219.83Z" style="fill:#ffa8a7"></path><path d="M129,234.49A17.09,17.09,0,0,0,140.05,228a15.2,15.2,0,0,0,1.9-3.5,15.94,15.94,0,0,1-4,4.81c-3.43,3-6.48,3.12-8.29,2.63s-3.81-2.34-5-4.17A21.69,21.69,0,0,0,129,234.49Z" style="fill:#f28f8f"></path><path d="M128.73,117.92c-10.33,3-13.27,4.15-16,12.35-2.07,6.18-9.3,31-11,37.9s-1.81,8,1.62,17.31c3.67,10,15.53,30.47,15.53,30.47,3.32-4,7.89-7.23,12.24-7.83l-8-32.62,10.5-29.12S137.24,126.75,128.73,117.92Z" style="fill:#263238"></path></g></g></g></g></svg>