<?xml version="1.0" encoding="UTF-8"?>
<svg viewBox="0 0 163.41 158.4" xmlns="http://www.w3.org/2000/svg">
<g transform="translate(-56.546 -17.51)">
<g transform="translate(56.546 17.51)" fill="#3636b0" data-name="Layer 2">
<circle transform="translate(114.38)" cx="17.253" cy="17.253" r="17.253" data-name="Ellipse 7"/>
<path transform="translate(42.504 5.94)" d="M120.666,65.363A31.533,31.533,0,0,0,89.133,33.83h0A31.533,31.533,0,0,0,57.6,65.363V92.169a4.874,4.874,0,0,0,4.874,4.874h5.7v46.5a8.9,8.9,0,0,0,8.895,8.895h24.369a8.9,8.9,0,0,0,8.895-8.895V96.872h5.7A4.874,4.874,0,0,0,120.91,92Z" data-name="Path 31"/>
<circle transform="translate(18.396)" cx="17.253" cy="17.253" r="17.253" data-name="Ellipse 8"/>
<path transform="translate(-16.521 5.94)" d="M87.358,121.045,73.4,96.872A10.5,10.5,0,0,0,83.7,86.369V65.363A31.533,31.533,0,0,0,52.17,33.83h0A31.533,31.533,0,0,0,20.637,65.363v21.03a10.5,10.5,0,0,0,10.31,10.5L16.982,121.07a3.387,3.387,0,0,0,2.949,5.093H31.164v17.4a8.9,8.9,0,0,0,8.895,8.895H64.428a8.9,8.9,0,0,0,8.895-8.895V126.138H84.556a3.387,3.387,0,0,0,2.8-5.093ZM54.241,92.583A19.5,19.5,0,0,1,31.408,80.4a4.874,4.874,0,0,1,4.7-6.628h13.5c10.527,0,19.081-10.357,19.349-.487a19.105,19.105,0,0,1-14.719,19.3ZM71.056,68.068a5.119,5.119,0,1,1,.024,0Z" data-name="Path 32"/>
</g>
</g>
</svg>
