<svg xmlns="http://www.w3.org/2000/svg" width="520.816" height="521.033" viewBox="0 0 520.816 521.033">
  <g id="noun_reward_2701041" transform="translate(-56.942 -7)">
    <rect id="Rectangle_4" data-name="Rectangle 4" width="62.524" height="93.786" transform="translate(285.979 366.513)" fill="#4178ff"/>
    <path id="Path_12" data-name="Path 12" d="M188.731,51H63.683A41.805,41.805,0,0,0,22,92.683V103.1c0,6.252,4.168,10.421,10.421,10.421H219.993c6.252,0,10.421-4.168,10.421-10.421V92.683A41.805,41.805,0,0,0,188.731,51Z" transform="translate(191.035 414.509)" fill="#4178ff"/>
    <path id="Path_13" data-name="Path 13" d="M519.5,65.356c-8.337-10.421-19.8-16.673-33.346-16.673H413.209V27.841A20.9,20.9,0,0,0,392.368,7h-250.1a20.9,20.9,0,0,0-20.841,20.841V48.683H48.486c-13.547,0-26.052,6.252-33.346,16.673A42.984,42.984,0,0,0,8.888,102.87l32.3,104.207c5.21,17.715,21.883,29.178,39.6,29.178h41.683a58.75,58.75,0,0,0,4.168,12.5l50.019,91.7a40.9,40.9,0,0,0,36.472,21.883H321.508a40.9,40.9,0,0,0,36.472-21.883L408,248.759a58.749,58.749,0,0,0,4.168-12.5H453.85c18.757,0,34.388-11.463,39.6-29.178l32.3-104.207C529.921,90.365,527.837,76.818,519.5,65.356ZM120.389,215.413H80.79c-9.379,0-16.673-6.252-19.8-14.589L28.687,96.618A20.2,20.2,0,0,1,31.813,77.86a21.754,21.754,0,0,1,16.673-8.337h71.9Zm91.7,29.178a11.257,11.257,0,0,1-7.294,3.126,3.828,3.828,0,0,1-3.126-1.042c-4.168,0-7.294-4.168-7.294-8.337l-1.042-18.757-18.757,1.042a11.461,11.461,0,0,1-10.421-6.252c-2.084-4.168-1.042-8.337,2.084-11.463l34.388-38.556a3.828,3.828,0,0,0,1.042,3.126c4.168,17.715,15.631,34.388,31.262,43.767a50.8,50.8,0,0,0,7.294,3.126Zm22.925-38.556c-14.589-8.337-25.01-22.925-29.178-39.6-1.042-4.168-1.042-8.337-1.042-13.547a62.524,62.524,0,1,1,125.048,0c0,5.21-1.042,9.379-2.084,14.589-3.126,16.673-14.589,31.262-29.178,39.6a58.505,58.505,0,0,1-32.3,9.379A74.055,74.055,0,0,1,235.016,206.035Zm135.469,8.337a11.461,11.461,0,0,1-10.421,6.252l-18.757-1.042-1.042,18.757a10.009,10.009,0,0,1-7.294,9.379c-1.042,0-2.084,1.042-3.126,1.042-3.126,0-6.252-1.042-7.294-3.126l-27.094-30.22a50.8,50.8,0,0,1,7.294-3.126,68.572,68.572,0,0,0,31.262-42.725c0-1.042,1.042-3.126,1.042-4.168l34.388,38.556C371.527,206.035,372.569,210.2,370.485,214.371ZM505.953,96.618l-32.3,104.207c-3.126,8.337-10.421,14.589-19.8,14.589h-39.6V69.524h71.9a21.754,21.754,0,0,1,16.673,8.337A20.2,20.2,0,0,1,505.953,96.618Z" transform="translate(49.921 0)" fill="#4178ff"/>
  </g>
</svg>
