<svg xmlns="http://www.w3.org/2000/svg" width="169.405" height="158.396" viewBox="0 0 169.405 158.396">
  <g id="noun_School_1099568" transform="translate(946.5 -956.4)">
    <g id="Group_22" data-name="Group 22" transform="translate(-946.5 956.4)">
      <path id="Path_33" data-name="Path 33" d="M-807.857,956.4h-101.75A6.366,6.366,0,0,0-916,962.793v33.562c1.421,2.486,3.552,5.86,4.972,7.991l17.047-.888h.355a5.594,5.594,0,0,1,5.5,5.15l.177,3.019a5.652,5.652,0,0,1-4.794,6.038c-6.393.888-21.309,2.841-22.2,3.019h-.888v15.8a6.366,6.366,0,0,0,6.393,6.393h101.75a6.366,6.366,0,0,0,6.393-6.393V962.793A6.637,6.637,0,0,0-807.857,956.4Z" transform="translate(970.16 -956.4)" fill="#3636b0"/>
      <circle id="Ellipse_9" data-name="Ellipse 9" cx="12.43" cy="12.43" r="12.43" transform="translate(16.692 5.15)" fill="#3636b0"/>
      <path id="Path_34" data-name="Path 34" d="M-902.956,1025.4h-3.2a1.611,1.611,0,0,0-1.243.533,16.276,16.276,0,0,1-11.365,4.439,17.107,17.107,0,0,1-11.365-4.439,1.918,1.918,0,0,0-1.243-.533h-3.2a5.512,5.512,0,0,0-5.5,6.215l-2.131,21.131a6.878,6.878,0,0,0,4.617,6.038c4.972,1.6,13.5,2.486,19.178,2.486s14.206-.888,19.178-2.486a6.684,6.684,0,0,0,4.617-6.038l-2.131-21.131C-897.1,1028.241-899.582,1025.4-902.956,1025.4Z" transform="translate(949.835 -902.874)" fill="#3636b0"/>
      <circle id="Ellipse_10" data-name="Ellipse 10" cx="12.785" cy="12.785" r="12.785" transform="translate(18.112 98.021)" fill="#3636b0"/>
      <path id="Path_35" data-name="Path 35" d="M-870.856,1025.4h-3.2a1.611,1.611,0,0,0-1.243.533,16.276,16.276,0,0,1-11.365,4.439,17.107,17.107,0,0,1-11.365-4.439,1.919,1.919,0,0,0-1.243-.533h-3.2a5.512,5.512,0,0,0-5.5,6.215l-2.131,21.131a6.878,6.878,0,0,0,4.617,6.038c4.972,1.6,13.5,2.486,19.178,2.486s14.206-.888,19.178-2.486a6.684,6.684,0,0,0,4.617-6.038l-2.131-21.131A6.413,6.413,0,0,0-870.856,1025.4Z" transform="translate(974.737 -902.874)" fill="#3636b0"/>
      <circle id="Ellipse_11" data-name="Ellipse 11" cx="12.785" cy="12.785" r="12.785" transform="translate(75.291 98.021)" fill="#3636b0"/>
      <path id="Path_36" data-name="Path 36" d="M-838.656,1025.4h-3.2a1.611,1.611,0,0,0-1.243.533,16.276,16.276,0,0,1-11.365,4.439,17.107,17.107,0,0,1-11.365-4.439,1.918,1.918,0,0,0-1.243-.533h-3.2a5.512,5.512,0,0,0-5.5,6.215l-2.131,21.131a6.878,6.878,0,0,0,4.617,6.038c4.972,1.6,13.5,2.486,19.178,2.486s14.206-.888,19.178-2.486a6.684,6.684,0,0,0,4.617-6.038l-2.131-21.131C-832.8,1028.241-835.46,1025.4-838.656,1025.4Z" transform="translate(999.716 -902.874)" fill="#3636b0"/>
      <circle id="Ellipse_12" data-name="Ellipse 12" cx="12.785" cy="12.785" r="12.785" transform="translate(132.292 98.021)" fill="#3636b0"/>
      <path id="Path_37" data-name="Path 37" d="M-935.846,1002.057l4.617-9.589-1.421,33.384a3.792,3.792,0,0,0,3.729,3.907h22.907a3.751,3.751,0,0,0,3.729-3.729l-1.065-35.692,7.636,10.3,1.6,2.131a2.186,2.186,0,0,0,2.308.888c.888-.177,16.692-2.131,22.2-3.019a2.109,2.109,0,0,0,1.776-2.131l-.178-3.019a1.968,1.968,0,0,0-2.131-1.776l-19.178.888s-6.748-11.187-7.636-12.43a52,52,0,0,0-3.374-4.617h0l-1.6-1.065L-908.322,974a15.954,15.954,0,0,1-9.056,2.664A17.452,17.452,0,0,1-926.434,974l-6.393,2.308a5.66,5.66,0,0,0-3.2,3.2l-7.636,18.29a10.51,10.51,0,0,0-.888,3.374l-1.953,22.374a1.729,1.729,0,0,0,1.421,1.776l4.439.355a1.729,1.729,0,0,0,1.776-1.421Z" transform="translate(946.5 -942.747)" fill="#3636b0"/>
    </g>
  </g>
</svg>
