<svg xmlns="http://www.w3.org/2000/svg" width="115.519" height="158.396" viewBox="0 0 115.519 158.396">
  <g id="noun_student_686342" transform="translate(-73.206 -5)">
    <g id="Group_21" data-name="Group 21" transform="translate(73.206 5)">
      <path id="Path_25" data-name="Path 25" d="M69.642,39.846a17.483,17.483,0,0,1-12.578,0L43.152,33.82,33.043,29.445a30.942,30.942,0,0,0-.614,6.139c0,17.05,13.872,35.15,30.922,35.15s30.924-18.1,30.924-35.15a30.955,30.955,0,0,0-.614-6.139l-10.1,4.375Z" transform="translate(-5.593 13.577)" fill="#3636b0"/>
      <path id="Path_26" data-name="Path 26" d="M132.7,93.7a41.161,41.161,0,0,0-34.541-40.62,35.514,35.514,0,0,1-21.589,7.29H73.311a35.513,35.513,0,0,1-21.588-7.29A41.161,41.161,0,0,0,17.181,93.7c0,11.25,25.859,20.372,57.758,20.372,3.117,0,6.174-.092,9.161-.257l3.367-9.259a20.262,20.262,0,1,1,31.567,0l.725,1.991C127.847,103.047,132.7,98.576,132.7,93.7Z" transform="translate(-17.181 31.543)" fill="#3636b0"/>
      <path id="Path_27" data-name="Path 27" d="M110.929,25.984c2.529-1.1,2.529-2.89,0-3.986L73.549,5.82a13.31,13.31,0,0,0-9.2,0L26.967,22c-2.531,1.1-2.531,2.888,0,3.986L29.8,27.211l-.238,1.9a2.3,2.3,0,0,0-.319,4.453L27.526,57.647a10.987,10.987,0,0,0,.447,3.566l1.4,4.185c.157.48.366.72.577.72s.417-.239.577-.72l1.4-4.185a10.988,10.988,0,0,0,.449-3.566L30.652,33.564a2.3,2.3,0,0,0-.324-4.453l-.218-1.771,6.538,2.834,3.207,1.389V43.921L50.434,48.5l13.912,6.026a13.323,13.323,0,0,0,9.2,0L87.463,48.5,98.046,43.92V31.563l3.2-1.389Z" transform="translate(-11.187 -5)" fill="#3636b0"/>
      <path id="Path_28" data-name="Path 28" d="M78.813,87.847A20.407,20.407,0,0,1,74.1,88.5c-.137,0-.276.007-.414.007s-.28-.005-.417-.007a20.747,20.747,0,0,1-2.3-.178,19.807,19.807,0,0,1-2.408-.473,20.2,20.2,0,0,1-7.365-3.666L56.177,97.958c-.218.6-.023.977.436.977a1.31,1.31,0,0,0,.451-.1l5.579-2.077a1.618,1.618,0,0,1,.568-.1,1.832,1.832,0,0,1,1.566.873l2.936,5.176c.194.34.421.509.637.509.241,0,.465-.2.611-.612l2.485-6.825,1.121-3.073,1.119-3.075,1.119,3.075,1.118,3.073,2.485,6.825c.144.408.368.612.609.612.215,0,.442-.169.635-.507l2.936-5.176a1.827,1.827,0,0,1,1.565-.873,1.6,1.6,0,0,1,.568.1L90.3,98.841a1.318,1.318,0,0,0,.451.1c.459,0,.656-.377.436-.977L86.173,84.183A20.232,20.232,0,0,1,78.813,87.847Z" transform="translate(12.386 55.174)" fill="#3636b0"/>
      <path id="Path_29" data-name="Path 29" d="M60.455,92.048a16.145,16.145,0,0,0,5.558,4.46,16.154,16.154,0,0,0,2.6.989,15.842,15.842,0,0,0,2.416.489,16,16,0,0,0,12.95-4.2,16.849,16.849,0,0,0,1.6-1.739,16.468,16.468,0,0,0,1.454-2.163,16.055,16.055,0,1,0-28.034,0A16.3,16.3,0,0,0,60.455,92.048Zm3.237-12.369a9.636,9.636,0,0,1,18.962,2.378,10.043,10.043,0,0,1-.523,3.108,9.43,9.43,0,0,1-.709,1.6,9.1,9.1,0,0,1-.718,1.089,9.608,9.608,0,0,1-15.368,0,9.111,9.111,0,0,1-.72-1.089,9.572,9.572,0,0,1-.709-1.6,9.45,9.45,0,0,1-.385-1.545,9.183,9.183,0,0,1,.171-3.941Z" transform="translate(13.052 41.361)" fill="#3636b0"/>
      <path id="Path_30" data-name="Path 30" d="M63.912,77.917l1.323,1.29.348.341.046.046-.394,2.318-.387,2.249,4.1-2.156,4.1,2.156-.387-2.249-.4-2.318.053-.046.345-.341,1.323-1.29,1.484-1.445.114-.113L71,75.694l-.15-.3-1.9-3.853-1.9,3.853-.15.3-4.583.665.114.113Z" transform="translate(17.12 45.567)" fill="#3636b0"/>
    </g>
  </g>
</svg>
